<svg xmlns="http://www.w3.org/2000/svg" xmlns:xlink="http://www.w3.org/1999/xlink" width="750" zoomAndPan="magnify" viewBox="0 0 525 524.999984" height="750" preserveAspectRatio="xMidYMid meet" version="1.2"><defs><clipPath id="49bf00c6bc"><path d="M 28.046875 162 L 163 162 L 163 525 L 28.046875 525 Z M 28.046875 162 "/></clipPath><clipPath id="46faed3768"><path d="M 169 22.8125 L 357 22.8125 L 357 525 L 169 525 Z M 169 22.8125 "/></clipPath></defs><g id="a2f09d46c6"><g clip-rule="nonzero" clip-path="url(#49bf00c6bc)"><path style=" stroke:none;fill-rule:nonzero;fill:#ffffff;fill-opacity:1;" d="M 61.191406 437.191406 C 61.191406 436.675781 61.609375 436.253906 62.125 436.253906 L 124.121094 436.253906 C 124.636719 436.253906 125.054688 436.675781 125.054688 437.191406 L 125.054688 477.355469 C 125.054688 477.871094 124.636719 478.289062 124.121094 478.289062 L 62.125 478.289062 C 61.609375 478.289062 61.191406 477.871094 61.191406 477.355469 Z M 62.542969 365.167969 C 62.542969 364.648438 62.960938 364.230469 63.476562 364.230469 L 125.46875 364.230469 C 125.988281 364.230469 126.40625 364.648438 126.40625 365.167969 L 126.40625 405.332031 C 126.40625 405.847656 125.988281 406.269531 125.46875 406.269531 L 63.476562 406.269531 C 62.960938 406.269531 62.542969 405.847656 62.542969 405.332031 Z M 63.890625 293.144531 C 63.890625 292.628906 64.308594 292.210938 64.824219 292.210938 L 126.820312 292.210938 C 127.335938 292.210938 127.757812 292.628906 127.757812 293.144531 L 127.757812 333.308594 C 127.757812 333.824219 127.335938 334.246094 126.820312 334.246094 L 64.824219 334.246094 C 64.308594 334.246094 63.890625 333.824219 63.890625 333.308594 Z M 65.238281 221.125 C 65.238281 220.605469 65.660156 220.1875 66.175781 220.1875 L 128.167969 220.1875 C 128.683594 220.1875 129.101562 220.605469 129.101562 221.125 L 129.101562 261.285156 C 129.101562 261.804688 128.683594 262.222656 128.167969 262.222656 L 66.175781 262.222656 C 65.660156 262.222656 65.238281 261.804688 65.238281 261.285156 Z M 28.089844 536.402344 L 162.203125 536.402344 L 162.203125 162.078125 L 28.089844 162.078125 L 28.089844 536.402344 "/></g><g clip-rule="nonzero" clip-path="url(#46faed3768)"><path style=" stroke:none;fill-rule:nonzero;fill:#ffffff;fill-opacity:1;" d="M 229.015625 289.460938 C 229.015625 288.941406 229.433594 288.519531 229.953125 288.519531 L 291.945312 288.519531 C 292.460938 288.519531 292.882812 288.941406 292.882812 289.460938 L 292.882812 329.621094 C 292.882812 330.140625 292.460938 330.558594 291.945312 330.558594 L 229.953125 330.558594 C 229.433594 330.558594 229.015625 330.140625 229.015625 329.621094 Z M 230.367188 217.4375 C 230.367188 216.917969 230.785156 216.5 231.300781 216.5 L 293.296875 216.5 C 293.808594 216.5 294.234375 216.917969 294.234375 217.4375 L 294.234375 257.601562 C 294.234375 258.117188 293.808594 258.535156 293.296875 258.535156 L 231.300781 258.535156 C 230.785156 258.535156 230.367188 258.117188 230.367188 257.601562 Z M 231.710938 145.417969 C 231.710938 144.894531 232.132812 144.476562 232.648438 144.476562 L 294.644531 144.476562 C 295.160156 144.476562 295.582031 144.894531 295.582031 145.417969 L 295.582031 185.578125 C 295.582031 186.09375 295.160156 186.515625 294.644531 186.515625 L 232.648438 186.515625 C 232.132812 186.515625 231.710938 186.09375 231.710938 185.578125 Z M 233.066406 73.390625 C 233.066406 72.878906 233.484375 72.457031 234 72.457031 L 295.992188 72.457031 C 296.511719 72.457031 296.929688 72.878906 296.929688 73.390625 L 296.929688 113.558594 C 296.929688 114.070312 296.511719 114.488281 295.992188 114.488281 L 234 114.488281 C 233.484375 114.488281 233.066406 114.070312 233.066406 113.558594 Z M 169.304688 536.402344 L 207.371094 536.402344 L 207.371094 433.105469 C 207.371094 402.519531 232.394531 377.496094 262.972656 377.496094 C 278.261719 377.496094 292.164062 383.753906 302.242188 393.832031 C 312.320312 403.910156 318.574219 417.8125 318.574219 433.105469 L 318.574219 536.402344 L 356.644531 536.402344 L 356.644531 22.8125 L 169.304688 22.8125 L 169.304688 536.402344 "/></g><path style=" stroke:none;fill-rule:nonzero;fill:#ffffff;fill-opacity:1;" d="M 161.808594 69.304688 L 92.230469 69.304688 L 92.230469 151.539062 L 161.808594 151.539062 L 161.808594 69.304688 "/><path style=" stroke:none;fill-rule:nonzero;fill:#ffffff;fill-opacity:1;" d="M 513.246094 375.90625 C 513.246094 340.472656 484.523438 311.75 449.085938 311.75 C 413.65625 311.75 384.929688 340.472656 384.929688 375.90625 L 363.917969 375.90625 L 363.917969 536.402344 L 534.253906 536.402344 L 534.253906 375.90625 L 513.246094 375.90625 "/></g></svg>