<svg xmlns="http://www.w3.org/2000/svg" xmlns:xlink="http://www.w3.org/1999/xlink" width="750" zoomAndPan="magnify" viewBox="0 0 525 524.999984" height="750" preserveAspectRatio="xMidYMid meet" version="1.2"><defs><clipPath id="ae74fbdd22"><path d="M 48.140625 48 L 300 48 L 300 482 L 48.140625 482 Z M 48.140625 48 "/></clipPath><clipPath id="b895682a9b"><path d="M 263 80 L 514.640625 80 L 514.640625 515 L 263 515 Z M 263 80 "/></clipPath><clipPath id="d4b4add6a8"><path d="M 125 9.402344 L 437 9.402344 L 437 525 L 125 525 Z M 125 9.402344 "/></clipPath></defs><g id="ff3f7c1fce"><g clip-rule="nonzero" clip-path="url(#ae74fbdd22)"><path style=" stroke:none;fill-rule:nonzero;fill:#ffffff;fill-opacity:1;" d="M 87.074219 281.246094 C 87.074219 178.121094 167.96875 93.75 269.597656 87.632812 L 299.054688 49.148438 C 293.152344 48.683594 287.269531 48.238281 281.25 48.238281 C 152.570312 48.238281 48.238281 152.566406 48.238281 281.246094 C 48.238281 366.507812 94.160156 440.839844 162.492188 481.441406 L 172.609375 442.082031 C 121.035156 407.148438 87.074219 348.0625 87.074219 281.246094 Z M 87.074219 281.246094 "/></g><g clip-rule="nonzero" clip-path="url(#b895682a9b)"><path style=" stroke:none;fill-rule:nonzero;fill:#ffffff;fill-opacity:1;" d="M 399.191406 80.546875 L 388.53125 119.539062 C 440.859375 154.390625 475.425781 213.808594 475.425781 281.246094 C 475.425781 384.355469 394.53125 468.742188 292.898438 474.820312 L 263.421875 513.34375 C 269.347656 513.8125 275.230469 514.257812 281.25 514.257812 C 409.929688 514.257812 514.257812 409.925781 514.257812 281.246094 C 514.257812 195.65625 467.96875 121.050781 399.191406 80.546875 Z M 399.191406 80.546875 "/></g><g clip-rule="nonzero" clip-path="url(#d4b4add6a8)"><path style=" stroke:none;fill-rule:nonzero;fill:#ffffff;fill-opacity:1;" d="M 436.589844 222.996094 L 320.085938 222.996094 L 331.5 181.089844 L 353.328125 101.109375 L 363.578125 63.480469 L 378.335938 9.402344 L 342.257812 56.585938 L 316.394531 90.410156 L 251.773438 174.898438 L 125.910156 339.5 L 242.414062 339.5 L 231.054688 381.148438 L 209.171875 461.382812 L 198.917969 499.015625 L 184.160156 553.09375 L 220.238281 505.90625 L 246.101562 472.082031 L 311.539062 386.488281 Z M 436.589844 222.996094 "/></g></g></svg>