<svg xmlns="http://www.w3.org/2000/svg" xmlns:xlink="http://www.w3.org/1999/xlink" width="750" zoomAndPan="magnify" viewBox="0 0 525 524.999984" height="750" preserveAspectRatio="xMidYMid meet" version="1.2"><defs><clipPath id="002fd1ac6b"><path d="M 37.5 37.5 L 525 37.5 L 525 525 L 37.5 525 Z M 37.5 37.5 "/></clipPath></defs><g id="72ad68d5eb"><g clip-rule="nonzero" clip-path="url(#002fd1ac6b)"><path style=" stroke:none;fill-rule:nonzero;fill:#ffffff;fill-opacity:1;" d="M 514.839844 37.5 L 47.660156 37.5 C 42.066406 37.5 37.5 42.066406 37.5 47.660156 L 37.5 514.839844 C 37.5 520.433594 42.066406 525 47.660156 525 L 514.839844 525 C 520.433594 525 525 520.433594 525 514.839844 L 525 47.660156 C 525 42.066406 520.433594 37.5 514.839844 37.5 Z M 504.679688 504.679688 L 57.820312 504.679688 L 57.820312 57.820312 L 504.628906 57.820312 L 504.628906 504.679688 Z M 504.679688 504.679688 "/></g><path style=" stroke:none;fill-rule:nonzero;fill:#ffffff;fill-opacity:1;" d="M 276.222656 448.746094 L 319.328125 405.640625 L 189.960938 276.273438 L 146.855469 319.378906 Z M 276.222656 448.746094 "/><path style=" stroke:none;fill-rule:nonzero;fill:#ffffff;fill-opacity:1;" d="M 434.375 434.425781 L 487.386719 487.4375 L 487.488281 401.378906 L 477.480469 391.375 Z M 434.375 434.425781 "/><path style=" stroke:none;fill-rule:nonzero;fill:#ffffff;fill-opacity:1;" d="M 419.90625 333.796875 L 290.589844 463.164062 L 314.863281 487.4375 L 352.527344 487.4375 L 462.960938 376.851562 Z M 419.90625 333.796875 "/><path style=" stroke:none;fill-rule:nonzero;fill:#ffffff;fill-opacity:1;" d="M 381.265625 487.4375 L 458.648438 487.4375 L 419.957031 448.796875 Z M 381.265625 487.4375 "/><path style=" stroke:none;fill-rule:nonzero;fill:#ffffff;fill-opacity:1;" d="M 93.792969 487.4375 L 171.074219 487.4375 L 132.484375 448.746094 Z M 93.792969 487.4375 "/><path style=" stroke:none;fill-rule:nonzero;fill:#ffffff;fill-opacity:1;" d="M 434.273438 319.429688 L 487.488281 372.644531 L 487.488281 286.332031 L 477.480469 276.324219 Z M 434.273438 319.429688 "/><path style=" stroke:none;fill-rule:nonzero;fill:#ffffff;fill-opacity:1;" d="M 146.855469 434.375 L 199.8125 487.4375 L 286.125 487.4375 L 189.90625 391.21875 Z M 146.855469 434.375 "/><path style=" stroke:none;fill-rule:nonzero;fill:#ffffff;fill-opacity:1;" d="M 290.585938 348.132812 L 419.941406 218.773438 L 463.050781 261.878906 L 333.691406 391.238281 Z M 290.585938 348.132812 "/><path style=" stroke:none;fill-rule:nonzero;fill:#ffffff;fill-opacity:1;" d="M 146.855469 204.378906 L 276.222656 333.746094 L 319.328125 290.640625 L 189.960938 161.273438 Z M 146.855469 204.378906 "/><path style=" stroke:none;fill-rule:nonzero;fill:#ffffff;fill-opacity:1;" d="M 304.957031 75.0625 L 247.484375 75.0625 L 276.222656 103.800781 Z M 304.957031 75.0625 "/><path style=" stroke:none;fill-rule:nonzero;fill:#ffffff;fill-opacity:1;" d="M 132.433594 103.800781 L 74.960938 161.273438 L 74.960938 247.433594 L 175.539062 146.90625 Z M 132.433594 103.800781 "/><path style=" stroke:none;fill-rule:nonzero;fill:#ffffff;fill-opacity:1;" d="M 132.433594 218.746094 L 74.960938 276.167969 L 74.960938 362.484375 L 175.539062 261.902344 Z M 132.433594 218.746094 "/><path style=" stroke:none;fill-rule:nonzero;fill:#ffffff;fill-opacity:1;" d="M 132.433594 333.796875 L 74.960938 391.21875 L 74.960938 477.53125 L 175.539062 376.851562 Z M 132.433594 333.796875 "/><path style=" stroke:none;fill-rule:nonzero;fill:#ffffff;fill-opacity:1;" d="M 74.960938 75.0625 L 74.960938 132.484375 L 132.433594 75.0625 Z M 74.960938 75.0625 "/><path style=" stroke:none;fill-rule:nonzero;fill:#ffffff;fill-opacity:1;" d="M 434.324219 204.378906 L 487.488281 257.59375 L 487.488281 171.28125 L 477.429688 161.273438 Z M 434.324219 204.378906 "/><path style=" stroke:none;fill-rule:nonzero;fill:#ffffff;fill-opacity:1;" d="M 319.328125 175.589844 L 218.746094 75.0625 L 161.171875 75.0625 L 146.800781 89.429688 L 276.222656 218.695312 Z M 319.328125 175.589844 "/><path style=" stroke:none;fill-rule:nonzero;fill:#ffffff;fill-opacity:1;" d="M 487.488281 75.0625 L 448.589844 75.0625 L 434.273438 89.378906 L 487.488281 142.542969 Z M 487.488281 75.0625 "/><path style=" stroke:none;fill-rule:nonzero;fill:#ffffff;fill-opacity:1;" d="M 333.695312 276.273438 L 463.0625 146.90625 L 419.90625 103.800781 L 290.589844 233.117188 Z M 333.695312 276.273438 "/><path style=" stroke:none;fill-rule:nonzero;fill:#ffffff;fill-opacity:1;" d="M 333.695312 161.222656 L 419.855469 75.0625 L 333.695312 75.0625 L 290.589844 118.167969 Z M 333.695312 161.222656 "/></g></svg>