<svg xmlns="http://www.w3.org/2000/svg" xmlns:xlink="http://www.w3.org/1999/xlink" width="750" zoomAndPan="magnify" viewBox="0 0 525 524.999984" height="750" preserveAspectRatio="xMidYMid meet" version="1.2"><defs><clipPath id="bcfae5ae26"><path d="M 71.449219 49 L 490.699219 49 L 490.699219 513 L 71.449219 513 Z M 71.449219 49 "/></clipPath></defs><g id="dc0191551a"><g clip-rule="nonzero" clip-path="url(#bcfae5ae26)"><path style=" stroke:none;fill-rule:nonzero;fill:#ffffff;fill-opacity:1;" d="M 490.699219 178.511719 L 490.699219 512.210938 L 456.707031 512.210938 L 456.707031 240.265625 C 456.707031 234.03125 451.609375 228.933594 445.375 228.933594 L 116.773438 228.933594 C 110.542969 228.933594 105.445312 234.03125 105.445312 240.265625 L 105.445312 512.210938 L 71.449219 512.210938 L 71.449219 178.511719 L 281.074219 49.902344 Z M 128.105469 455.554688 L 434.046875 455.554688 L 434.046875 421.5625 L 128.105469 421.5625 Z M 128.105469 512.210938 L 434.046875 512.210938 L 434.046875 478.21875 L 128.105469 478.21875 Z M 128.105469 342.246094 L 434.046875 342.246094 L 434.046875 308.25 L 128.105469 308.25 Z M 128.105469 285.589844 L 434.046875 285.589844 L 434.046875 251.59375 L 128.105469 251.59375 Z M 128.105469 398.898438 L 434.046875 398.898438 L 434.046875 364.90625 L 128.105469 364.90625 Z M 128.105469 398.898438 "/></g></g></svg>