<svg xmlns="http://www.w3.org/2000/svg" xmlns:xlink="http://www.w3.org/1999/xlink" width="750" zoomAndPan="magnify" viewBox="0 0 525 524.999984" height="750" preserveAspectRatio="xMidYMid meet" version="1.2"><defs><clipPath id="fe6c6decfd"><path d="M 251 147.253906 L 311 147.253906 L 311 154 L 251 154 Z M 251 147.253906 "/></clipPath><clipPath id="f26eff971b"><path d="M 22.320312 212 L 73 212 L 73 415 L 22.320312 415 Z M 22.320312 212 "/></clipPath></defs><g id="f8ac9a9722"><path style=" stroke:none;fill-rule:nonzero;fill:#ffffff;fill-opacity:1;" d="M 260.730469 197.480469 L 301.3125 197.480469 L 301.3125 214.953125 L 260.730469 214.953125 Z M 260.730469 197.480469 "/><g clip-rule="nonzero" clip-path="url(#fe6c6decfd)"><path style=" stroke:none;fill-rule:nonzero;fill:#ffffff;fill-opacity:1;" d="M 297.679688 147.214844 L 264.363281 147.214844 C 259.234375 147.214844 254.75 149.589844 251.972656 153.472656 L 310.070312 153.472656 C 307.292969 149.589844 302.808594 147.214844 297.679688 147.214844 Z M 297.679688 147.214844 "/></g><path style=" stroke:none;fill-rule:nonzero;fill:#ffffff;fill-opacity:1;" d="M 361.542969 260.46875 L 361.542969 366.390625 C 361.542969 373.078125 360.046875 379.117188 357.699219 384.726562 L 451.460938 384.726562 L 451.460938 242.351562 L 357.699219 242.351562 C 360.046875 247.957031 361.542969 254 361.542969 260.46875 Z M 375.640625 259.609375 L 418.144531 259.609375 C 421.558594 259.609375 424.550781 262.628906 424.550781 266.078125 C 424.550781 269.746094 421.558594 272.550781 418.144531 272.550781 L 375.640625 272.550781 C 372.222656 272.550781 369.234375 269.746094 369.234375 266.078125 C 369.230469 262.628906 372.222656 259.609375 375.640625 259.609375 Z M 375.640625 259.609375 "/><path style=" stroke:none;fill-rule:nonzero;fill:#ffffff;fill-opacity:1;" d="M 204.34375 242.351562 L 110.582031 242.351562 L 110.582031 384.726562 L 204.34375 384.726562 C 201.78125 379.117188 200.5 373.078125 200.5 366.390625 L 200.5 260.472656 C 200.5 254 201.78125 247.957031 204.34375 242.351562 Z M 204.34375 242.351562 "/><path style=" stroke:none;fill-rule:nonzero;fill:#ffffff;fill-opacity:1;" d="M 457.867188 241.269531 L 457.867188 385.804688 C 457.867188 392.0625 462.78125 397.238281 468.976562 397.238281 L 482.859375 397.238281 L 482.859375 229.839844 L 468.976562 229.839844 C 462.78125 229.839844 457.867188 235.015625 457.867188 241.269531 Z M 457.867188 241.269531 "/><path style=" stroke:none;fill-rule:nonzero;fill:#ffffff;fill-opacity:1;" d="M 92.851562 229.839844 L 78.972656 229.839844 L 78.972656 397.238281 L 92.855469 397.238281 C 99.046875 397.238281 104.175781 392.0625 104.175781 385.808594 L 104.175781 241.269531 C 104.175781 235.015625 99.046875 229.839844 92.851562 229.839844 Z M 92.851562 229.839844 "/><path style=" stroke:none;fill-rule:nonzero;fill:#ffffff;fill-opacity:1;" d="M 528.351562 212.148438 L 499.945312 212.148438 C 494.179688 212.148438 489.265625 216.894531 489.265625 222.933594 L 489.265625 404.144531 C 489.265625 410.183594 494.175781 414.929688 499.945312 414.929688 L 528.351562 414.929688 C 534.332031 414.929688 539.246094 410.183594 539.246094 404.144531 L 539.246094 222.933594 C 539.246094 216.894531 534.332031 212.148438 528.351562 212.148438 Z M 514.683594 242.351562 C 509.558594 242.351562 505.285156 238.035156 505.285156 232.859375 C 505.285156 227.464844 509.554688 223.148438 514.683594 223.148438 C 519.808594 223.148438 524.082031 227.464844 524.082031 232.859375 C 524.082031 238.035156 519.808594 242.351562 514.683594 242.351562 Z M 514.683594 242.351562 "/><g clip-rule="nonzero" clip-path="url(#f26eff971b)"><path style=" stroke:none;fill-rule:nonzero;fill:#ffffff;fill-opacity:1;" d="M 61.882812 212.148438 L 33.476562 212.148438 C 27.496094 212.148438 22.796875 216.894531 22.796875 222.933594 L 22.796875 404.144531 C 22.796875 410.183594 27.496094 414.929688 33.476562 414.929688 L 61.882812 414.929688 C 67.863281 414.929688 72.5625 410.183594 72.5625 404.144531 L 72.5625 222.933594 C 72.5625 216.894531 67.863281 212.148438 61.882812 212.148438 Z M 61.882812 212.148438 "/></g><path style=" stroke:none;fill-rule:nonzero;fill:#ffffff;fill-opacity:1;" d="M 372.222656 175.476562 C 372.222656 167.0625 365.386719 159.941406 356.84375 159.941406 L 205.199219 159.941406 C 196.65625 159.941406 189.605469 167.0625 189.605469 175.476562 C 189.605469 184.105469 196.65625 191.007812 205.199219 191.007812 L 356.84375 191.007812 C 365.386719 191.007812 372.222656 184.105469 372.222656 175.476562 Z M 372.222656 175.476562 "/><path style=" stroke:none;fill-rule:nonzero;fill:#ffffff;fill-opacity:1;" d="M 316.261719 221.425781 L 245.566406 221.425781 C 224.207031 221.425781 206.910156 239.113281 206.910156 260.46875 L 206.910156 366.390625 C 206.910156 387.964844 224.207031 405.652344 245.566406 405.652344 L 316.261719 405.652344 C 337.621094 405.652344 355.136719 387.964844 355.136719 366.390625 L 355.136719 260.46875 C 355.136719 239.113281 337.621094 221.425781 316.261719 221.425781 Z M 316.261719 221.425781 "/></g></svg>