<svg xmlns="http://www.w3.org/2000/svg" xmlns:xlink="http://www.w3.org/1999/xlink" width="750" zoomAndPan="magnify" viewBox="0 0 562.5 562.499982" height="750" preserveAspectRatio="xMidYMid meet" version="1.2"><defs><clipPath id="d73f2ec980"><path d="M 27 73 L 535 73 L 535 522.128906 L 27 522.128906 Z M 27 73 "/></clipPath></defs><g id="baddca6572"><g clip-rule="nonzero" clip-path="url(#d73f2ec980)"><path style=" stroke:none;fill-rule:nonzero;fill:#ffffff;fill-opacity:1;" d="M 503.855469 425.738281 L 493.640625 417.011719 C 505.640625 412.347656 510.105469 406.894531 528.449219 406.796875 C 531.722656 406.796875 534.402344 409.472656 534.402344 412.746094 C 534.402344 416.117188 531.722656 418.695312 528.449219 418.695312 C 515.953125 418.796875 511.492188 421.871094 503.855469 425.738281 L 504.054688 425.9375 Z M 33.183594 418.695312 C 56.785156 418.992188 57.082031 431.6875 82.769531 431.390625 C 108.355469 431.6875 108.652344 418.992188 132.15625 418.695312 C 155.859375 418.992188 156.058594 431.6875 181.742188 431.390625 C 207.429688 431.6875 207.527344 418.992188 231.230469 418.695312 C 242.238281 418.695312 247.296875 421.273438 253.246094 424.449219 C 259.59375 427.722656 266.933594 431.390625 280.71875 431.390625 C 295.890625 431.292969 302.039062 427.421875 310.074219 423.457031 L 313.34375 409.175781 C 300.550781 413.339844 297.082031 419.488281 280.71875 419.390625 C 257.015625 419.09375 256.914062 406.5 231.128906 406.695312 C 205.445312 406.5 205.347656 419.09375 181.644531 419.390625 C 157.941406 419.09375 157.742188 406.5 132.058594 406.695312 C 106.46875 406.5 106.273438 419.09375 82.667969 419.390625 C 58.96875 419.09375 58.769531 406.5 33.082031 406.695312 C 25.445312 406.796875 25.347656 418.695312 33.183594 418.695312 Z M 528.449219 474.628906 C 525.179688 474.628906 522.300781 474.828125 519.722656 475.226562 L 519.921875 476.214844 C 519.824219 475.917969 519.722656 475.523438 519.722656 475.226562 L 524.382812 495.953125 C 523.589844 492.578125 522.300781 486.730469 521.210938 481.671875 L 522.402344 486.828125 C 526.964844 486.429688 534.300781 487.421875 534.402344 480.582031 C 534.402344 477.308594 531.722656 474.628906 528.449219 474.628906 Z M 77.214844 257.738281 L 206.039062 257.738281 C 204.652344 254.960938 203.261719 252.085938 201.972656 249.011719 C 183.328125 200.914062 183.726562 143.492188 206.039062 96.582031 L 77.214844 96.582031 C 56.488281 96.582031 39.132812 133.476562 39.132812 177.113281 C 39.132812 220.847656 56.488281 257.738281 77.214844 257.738281 Z M 250.46875 280.546875 L 334.070312 280.546875 L 332.980469 279.457031 C 288.75 234.035156 288.847656 118.402344 334.070312 73.675781 L 250.46875 73.675781 C 245.3125 73.675781 240.253906 75.460938 235.296875 78.832031 C 208.121094 101.144531 201.675781 140.121094 200.785156 177.113281 C 200.785156 216.085938 213.378906 276.484375 250.46875 280.546875 Z M 369.875 279.160156 C 368.980469 276.679688 367.59375 274.203125 366.003906 272.117188 C 366.003906 272.019531 366.003906 272.019531 365.90625 272.019531 C 362.734375 267.457031 356.78125 266.464844 352.417969 263.589844 C 343.789062 258.433594 337.144531 250.300781 332.882812 241.277344 C 325.148438 221.046875 322.867188 198.832031 322.171875 177.210938 C 322.171875 125.441406 343.097656 86.664062 361.742188 86.664062 C 397.144531 89.742188 411.03125 182.863281 393.574219 228.878906 C 396.847656 230.367188 399.921875 231.953125 403.195312 233.738281 C 408.648438 216.78125 411.527344 197.34375 411.527344 177.011719 C 407.558594 39.757812 315.921875 39.558594 312.054688 177.011719 C 312.847656 235.523438 335.757812 288.679688 369.875 279.160156 Z M 361.839844 98.664062 C 342.304688 103.523438 326.136719 169.671875 338.335938 214.300781 C 351.625 222.035156 367.59375 221.839844 382.269531 225.410156 C 387.328125 209.9375 389.3125 193.574219 389.410156 177.308594 C 389.410156 125.640625 368.980469 98.664062 361.839844 98.664062 Z M 341.015625 228.679688 C 344.386719 240.382812 352.222656 251.6875 364.023438 256.054688 C 396.949219 269.441406 386.335938 341.339844 372.351562 356.316406 C 352.519531 375.457031 323.855469 392.21875 321.476562 430.300781 C 319.691406 463.917969 298.171875 470.265625 282.007812 487.226562 C 304.617188 486.429688 305.3125 474.332031 330.304688 474.628906 C 355.988281 474.429688 356.089844 487.027344 379.890625 487.324219 C 403.492188 487.027344 403.789062 474.429688 429.378906 474.628906 C 443.164062 474.628906 450.5 478.398438 456.945312 481.671875 C 462.898438 484.746094 468.054688 487.324219 478.964844 487.324219 C 493.742188 487.324219 497.609375 482.664062 508.121094 478.300781 C 501.277344 462.730469 509.804688 446.863281 496.320312 434.960938 C 489.179688 428.8125 481.144531 423.753906 476.78125 414.234375 C 472.914062 405.40625 473.90625 396.777344 473.90625 388.152344 C 473.90625 356.414062 453.773438 333.40625 441.277344 306.035156 C 435.03125 293.042969 433.246094 276.976562 424.320312 266.070312 C 416.882812 256.746094 403.988281 247.523438 392.683594 241.773438 C 376.617188 233.539062 357.675781 235.128906 341.015625 228.679688 Z M 528.449219 542.5625 C 502.765625 542.363281 502.566406 554.960938 478.863281 555.257812 C 455.160156 554.960938 454.964844 542.363281 429.277344 542.5625 C 403.59375 542.363281 403.492188 554.960938 379.789062 555.257812 C 356.089844 554.960938 355.890625 542.363281 330.304688 542.5625 C 304.617188 542.363281 304.417969 554.960938 280.816406 555.257812 C 257.113281 554.960938 257.015625 542.363281 231.328125 542.5625 C 217.542969 542.5625 210.304688 546.332031 203.859375 549.605469 C 197.90625 552.679688 192.75 555.257812 181.84375 555.257812 C 170.933594 555.257812 165.777344 552.578125 159.824219 549.605469 C 153.378906 546.332031 146.140625 542.5625 132.355469 542.5625 C 118.570312 542.5625 111.332031 546.332031 104.882812 549.605469 C 98.933594 552.679688 93.777344 555.257812 82.867188 555.257812 C 71.957031 555.257812 66.601562 552.578125 60.652344 549.503906 C 54.207031 546.234375 46.96875 542.464844 33.183594 542.464844 C 29.910156 542.464844 27.230469 545.140625 27.230469 548.414062 C 27.230469 551.6875 29.910156 554.363281 33.183594 554.363281 C 56.785156 554.664062 57.082031 567.257812 82.667969 567.058594 C 108.355469 567.257812 108.453125 554.664062 132.15625 554.363281 C 155.757812 554.664062 156.058594 567.257812 181.644531 567.058594 C 207.328125 567.257812 207.429688 554.664062 231.128906 554.363281 C 242.039062 554.363281 247.195312 557.042969 253.148438 560.015625 C 266.933594 569.140625 294.304688 569.140625 308.089844 560.015625 C 314.039062 556.941406 319.195312 554.363281 330.105469 554.363281 C 341.015625 554.363281 346.171875 557.042969 352.121094 560.015625 C 358.566406 563.289062 365.808594 567.058594 379.59375 567.058594 C 393.378906 567.058594 400.714844 563.289062 407.0625 560.015625 C 413.011719 556.941406 418.171875 554.363281 429.078125 554.363281 C 452.78125 554.664062 452.980469 567.257812 478.664062 567.058594 C 504.351562 567.257812 504.550781 554.664062 528.253906 554.363281 C 535.988281 554.363281 536.382812 542.664062 528.449219 542.5625 Z M 265.246094 497.339844 L 266.933594 491.984375 C 267.625 489.605469 268.320312 487.523438 268.816406 485.933594 C 254.933594 481.472656 251.066406 474.730469 231.328125 474.730469 C 217.542969 474.730469 210.304688 478.496094 203.859375 481.769531 C 197.90625 484.84375 192.75 487.421875 181.84375 487.421875 C 170.832031 487.421875 165.777344 484.84375 159.824219 481.769531 C 146.039062 472.546875 118.667969 472.644531 104.882812 481.769531 C 98.933594 484.84375 93.777344 487.421875 82.867188 487.421875 C 71.957031 487.421875 66.800781 484.84375 60.851562 481.769531 C 54.503906 478.496094 47.164062 474.730469 33.378906 474.730469 C 25.644531 474.730469 25.546875 486.628906 33.378906 486.628906 C 56.984375 486.925781 57.28125 499.621094 82.867188 499.324219 C 108.554688 499.621094 108.652344 486.925781 132.453125 486.628906 C 156.058594 486.925781 156.253906 499.621094 181.941406 499.324219 C 195.726562 499.324219 202.964844 495.65625 209.410156 492.382812 C 215.363281 489.308594 220.519531 486.628906 231.429688 486.628906 C 248.1875 486.429688 251.460938 493.273438 265.246094 497.339844 L 262.570312 506.066406 C 263.164062 503.886719 264.15625 500.613281 265.246094 497.339844 Z M 265.246094 497.339844 "/></g></g></svg>