<svg xmlns="http://www.w3.org/2000/svg" xmlns:xlink="http://www.w3.org/1999/xlink" width="326" zoomAndPan="magnify" viewBox="0 0 244.5 470.999988" height="628" preserveAspectRatio="xMidYMid meet" version="1.2"><defs><clipPath id="5ec304cf18"><path d="M 20 108 L 242.996094 108 L 242.996094 349.628906 L 20 349.628906 Z M 20 108 "/></clipPath><clipPath id="d164afe388"><path d="M 54 0.480469 L 82 0.480469 L 82 100 L 54 100 Z M 54 0.480469 "/></clipPath><clipPath id="c1fef2ec50"><path d="M 181 0.480469 L 210 0.480469 L 210 100 L 181 100 Z M 181 0.480469 "/></clipPath><clipPath id="e943efbb4f"><path d="M 104.597656 318.375 L 162.507812 318.375 L 162.507812 470.390625 L 104.597656 470.390625 Z M 104.597656 318.375 "/></clipPath><clipPath id="1bf3c1ad9a"><path d="M 130.792969 318.375 L 136.308594 318.375 C 150.777344 318.375 162.507812 330.105469 162.507812 344.574219 L 162.507812 444.105469 C 162.507812 458.574219 150.777344 470.300781 136.308594 470.300781 L 130.792969 470.300781 C 116.324219 470.300781 104.597656 458.574219 104.597656 444.105469 L 104.597656 344.574219 C 104.597656 330.105469 116.324219 318.375 130.792969 318.375 Z M 130.792969 318.375 "/></clipPath></defs><g id="47796ade26"><g clip-rule="nonzero" clip-path="url(#5ec304cf18)"><path style=" stroke:none;fill-rule:nonzero;fill:#ffffff;fill-opacity:1;" d="M 228.488281 108.867188 L 35.40625 108.867188 C 34.4375 108.867188 33.472656 108.960938 32.519531 109.148438 C 31.570312 109.339844 30.644531 109.617188 29.746094 109.988281 C 28.847656 110.359375 27.996094 110.816406 27.1875 111.355469 C 26.382812 111.894531 25.632812 112.507812 24.949219 113.191406 C 24.261719 113.878906 23.648438 114.625 23.109375 115.433594 C 22.570312 116.242188 22.113281 117.09375 21.742188 117.992188 C 21.371094 118.886719 21.089844 119.8125 20.902344 120.765625 C 20.714844 121.71875 20.621094 122.679688 20.621094 123.648438 L 20.621094 240.746094 C 20.621094 302.214844 70.464844 352.070312 131.945312 352.070312 C 193.425781 352.070312 243.261719 302.214844 243.261719 240.746094 L 243.261719 123.648438 C 243.261719 122.679688 243.167969 121.71875 242.980469 120.765625 C 242.789062 119.816406 242.511719 118.890625 242.140625 117.992188 C 241.769531 117.097656 241.3125 116.246094 240.773438 115.4375 C 240.234375 114.628906 239.625 113.882812 238.9375 113.199219 C 238.25 112.511719 237.503906 111.898438 236.699219 111.359375 C 235.890625 110.820312 235.039062 110.363281 234.144531 109.992188 C 233.246094 109.621094 232.324219 109.339844 231.371094 109.152344 C 230.417969 108.960938 229.457031 108.867188 228.488281 108.867188 Z M 122.347656 306.550781 L 128.351562 243.421875 L 98.679688 243.421875 L 141.550781 155.632812 L 135.515625 218.75 L 165.191406 218.75 Z M 122.347656 306.550781 "/></g><g clip-rule="nonzero" clip-path="url(#d164afe388)"><path style=" stroke:none;fill-rule:nonzero;fill:#ffffff;fill-opacity:1;" d="M 81.953125 11.980469 L 81.953125 96.6875 C 81.953125 97.046875 81.882812 97.390625 81.746094 97.722656 C 81.609375 98.050781 81.414062 98.34375 81.160156 98.597656 C 80.910156 98.847656 80.617188 99.042969 80.285156 99.179688 C 79.957031 99.316406 79.613281 99.386719 79.253906 99.386719 L 57.488281 99.386719 C 57.132812 99.386719 56.789062 99.316406 56.457031 99.179688 C 56.128906 99.042969 55.835938 98.847656 55.582031 98.597656 C 55.328125 98.34375 55.136719 98.050781 54.996094 97.722656 C 54.859375 97.390625 54.792969 97.046875 54.792969 96.6875 L 54.792969 11.980469 C 54.792969 11.226562 54.867188 10.476562 55.015625 9.738281 C 55.160156 8.996094 55.378906 8.277344 55.667969 7.582031 C 55.957031 6.882812 56.3125 6.222656 56.730469 5.59375 C 57.148438 4.964844 57.625 4.382812 58.160156 3.851562 C 58.695312 3.316406 59.273438 2.839844 59.902344 2.421875 C 60.53125 2 61.191406 1.648438 61.890625 1.359375 C 62.589844 1.070312 63.308594 0.851562 64.046875 0.703125 C 64.789062 0.558594 65.535156 0.484375 66.289062 0.484375 L 70.453125 0.484375 C 71.207031 0.484375 71.957031 0.558594 72.695312 0.703125 C 73.4375 0.851562 74.15625 1.070312 74.851562 1.359375 C 75.550781 1.648438 76.214844 2 76.839844 2.421875 C 77.46875 2.839844 78.050781 3.316406 78.582031 3.851562 C 79.117188 4.382812 79.59375 4.964844 80.011719 5.59375 C 80.433594 6.222656 80.789062 6.882812 81.074219 7.582031 C 81.363281 8.277344 81.582031 8.996094 81.730469 9.738281 C 81.878906 10.476562 81.953125 11.226562 81.953125 11.980469 Z M 81.953125 11.980469 "/></g><g clip-rule="nonzero" clip-path="url(#c1fef2ec50)"><path style=" stroke:none;fill-rule:nonzero;fill:#ffffff;fill-opacity:1;" d="M 209.097656 11.980469 L 209.097656 96.6875 C 209.097656 97.046875 209.027344 97.390625 208.890625 97.722656 C 208.753906 98.050781 208.558594 98.34375 208.308594 98.597656 C 208.054688 98.847656 207.761719 99.042969 207.433594 99.179688 C 207.101562 99.316406 206.757812 99.386719 206.398438 99.386719 L 184.636719 99.386719 C 184.277344 99.386719 183.933594 99.316406 183.601562 99.179688 C 183.273438 99.042969 182.980469 98.847656 182.726562 98.597656 C 182.476562 98.34375 182.28125 98.050781 182.144531 97.722656 C 182.007812 97.390625 181.9375 97.046875 181.9375 96.6875 L 181.9375 11.980469 C 181.9375 11.226562 182.011719 10.476562 182.160156 9.738281 C 182.308594 8.996094 182.523438 8.277344 182.8125 7.578125 C 183.101562 6.882812 183.457031 6.21875 183.875 5.589844 C 184.296875 4.960938 184.773438 4.382812 185.308594 3.847656 C 185.839844 3.3125 186.421875 2.835938 187.050781 2.417969 C 187.679688 1.996094 188.339844 1.644531 189.039062 1.355469 C 189.738281 1.066406 190.457031 0.847656 191.195312 0.699219 C 191.9375 0.550781 192.683594 0.480469 193.441406 0.480469 L 197.597656 0.480469 C 198.355469 0.480469 199.101562 0.554688 199.84375 0.699219 C 200.582031 0.847656 201.300781 1.066406 202 1.355469 C 202.695312 1.644531 203.359375 2 203.988281 2.417969 C 204.613281 2.839844 205.195312 3.316406 205.730469 3.847656 C 206.261719 4.382812 206.738281 4.964844 207.160156 5.59375 C 207.578125 6.21875 207.933594 6.882812 208.222656 7.582031 C 208.511719 8.277344 208.730469 8.996094 208.875 9.738281 C 209.023438 10.476562 209.097656 11.226562 209.097656 11.980469 Z M 209.097656 11.980469 "/></g><g clip-rule="nonzero" clip-path="url(#e943efbb4f)"><g clip-rule="nonzero" clip-path="url(#1bf3c1ad9a)"><path style=" stroke:none;fill-rule:nonzero;fill:#ffffff;fill-opacity:1;" d="M 104.597656 318.375 L 162.507812 318.375 L 162.507812 470.390625 L 104.597656 470.390625 Z M 104.597656 318.375 "/></g></g></g></svg>