<svg width="40" height="41" viewBox="0 0 40 41" fill="none" xmlns="http://www.w3.org/2000/svg">
<rect width="40" height="41" rx="4" fill="#457AA5"/>
<path opacity="0.4" d="M16.67 23H12C10.9 23 10 23.9 10 25V31H16.67V23Z" fill="#DDEFFE"/>
<path d="M21.33 19H18.66C17.56 19 16.66 19.9 16.66 21V31H23.33V21C23.33 19.9 22.44 19 21.33 19Z" fill="#DDEFFE"/>
<path opacity="0.4" d="M28 26H23.33V31H30V28C30 26.9 29.1 26 28 26Z" fill="#DDEFFE"/>
<path d="M23.01 13.85C23.32 13.54 23.44 13.17 23.34 12.85C23.24 12.53 22.93 12.3 22.49 12.23L21.53 12.07C21.49 12.06 21.4 12 21.38 11.96L20.85 10.9C20.45 10.09 19.54 10.09 19.14 10.9L18.61 11.96C18.59 12 18.5 12.06 18.46 12.07L17.5 12.23C17.06 12.3 16.76 12.53 16.65 12.85C16.55 13.17 16.67 13.54 16.98 13.85L17.72 14.6C17.75 14.63 17.79 14.75 17.78 14.79L17.57 15.71C17.41 16.39 17.67 16.7 17.84 16.83C18.01 16.95 18.38 17.11 18.99 16.75L19.89 16.22C19.93 16.19 20.06 16.19 20.1 16.22L21 16.75C21.28 16.92 21.51 16.97 21.69 16.97C21.9 16.97 22.05 16.89 22.14 16.83C22.31 16.71 22.57 16.4 22.41 15.71L22.2 14.79C22.19 14.74 22.22 14.63 22.26 14.6L23.01 13.85Z" fill="#DDEFFE"/>
</svg>
