<svg width="60" height="39" viewBox="0 0 60 39" fill="none" xmlns="http://www.w3.org/2000/svg">
<mask id="mask0_142_3152" style="mask-type:luminance" maskUnits="userSpaceOnUse" x="2" y="21" width="56" height="18">
<path d="M2.79749 21.1128H57.3313V38.4483H2.79749V21.1128Z" fill="white"/>
</mask>
<g mask="url(#mask0_142_3152)">
<path d="M56.6882 37.749L37.8578 22.1253C37.3072 21.6672 36.5113 21.6672 35.9607 22.1253L30.8884 26.3326C30.3779 26.7586 29.6384 26.7586 29.1279 26.3326L24.0556 22.1253C23.5049 21.6672 22.7051 21.6672 22.1544 22.1253L3.32404 37.749C3.06681 37.966 3.21954 38.3839 3.55716 38.3839H56.4591C56.7967 38.3839 56.9454 37.966 56.6882 37.749Z" fill="#EAECF0"/>
</g>
<mask id="mask1_142_3152" style="mask-type:luminance" maskUnits="userSpaceOnUse" x="0" y="1" width="21" height="36">
<path d="M0 1.56689H20.2894V36.5434H0V1.56689Z" fill="white"/>
</mask>
<g mask="url(#mask1_142_3152)">
<path d="M19.8031 18.5975L0.598893 2.66437C0.365774 2.46747 0.00805664 2.63624 0.00805664 2.93762V35.5031C0.00805664 35.8085 0.365774 35.9772 0.598893 35.7803L19.8031 19.8472C20.1929 19.5217 20.1929 18.923 19.8031 18.5975Z" fill="#EAECF0"/>
</g>
<mask id="mask2_142_3152" style="mask-type:luminance" maskUnits="userSpaceOnUse" x="2" y="0" width="56" height="24">
<path d="M2.79749 0H57.3313V23.1703H2.79749V0Z" fill="white"/>
</mask>
<g mask="url(#mask2_142_3152)">
<path d="M3.32404 0.695084L29.2847 22.2379C29.7027 22.5835 30.3096 22.5835 30.7276 22.2379L56.6882 0.695084C56.9454 0.478088 56.7967 0.0561523 56.4591 0.0561523H3.55716C3.21954 0.0561523 3.06681 0.478088 3.32404 0.695084Z" fill="#EAECF0"/>
</g>
<mask id="mask3_142_3152" style="mask-type:luminance" maskUnits="userSpaceOnUse" x="39" y="1" width="21" height="36">
<path d="M39.8392 1.56689H60V36.5434H39.8392V1.56689Z" fill="white"/>
</mask>
<g mask="url(#mask3_142_3152)">
<path d="M59.4132 2.66437L40.213 18.5975C39.8191 18.923 39.8191 19.5217 40.213 19.8472L59.4132 35.7803C59.6503 35.9772 60.004 35.8085 60.004 35.5071V2.93762C60.004 2.63624 59.6503 2.46747 59.4132 2.66437Z" fill="#EAECF0"/>
</g>
</svg>
