<svg width="40" height="41" viewBox="0 0 40 41" fill="none" xmlns="http://www.w3.org/2000/svg">
<rect width="40" height="41" rx="4" fill="#457AA5"/>
<path opacity="0.4" d="M27.08 23.7199C26.49 20.1899 23.1 17.3199 19.52 17.3199C15.63 17.3199 12.21 20.4699 11.88 24.3499C11.75 25.8499 12.23 27.2699 13.22 28.3399C14.2 29.4099 15.58 29.9999 17.08 29.9999H21.76C23.45 29.9999 24.93 29.3399 25.94 28.1499C26.95 26.9599 27.35 25.3799 27.08 23.7199Z" fill="#DDEFFE"/>
<path d="M18.28 15.86C19.8982 15.86 21.21 14.5482 21.21 12.93C21.21 11.3118 19.8982 10 18.28 10C16.6618 10 15.35 11.3118 15.35 12.93C15.35 14.5482 16.6618 15.86 18.28 15.86Z" fill="#DDEFFE"/>
<path d="M24.94 17.03C26.2876 17.03 27.38 15.9376 27.38 14.59C27.38 13.2424 26.2876 12.15 24.94 12.15C23.5924 12.15 22.5 13.2424 22.5 14.59C22.5 15.9376 23.5924 17.03 24.94 17.03Z" fill="#DDEFFE"/>
<path d="M28.55 20.93C29.6269 20.93 30.5 20.057 30.5 18.98C30.5 17.9031 29.6269 17.03 28.55 17.03C27.473 17.03 26.6 17.9031 26.6 18.98C26.6 20.057 27.473 20.93 28.55 20.93Z" fill="#DDEFFE"/>
<path d="M11.94 18.98C13.2876 18.98 14.38 17.8876 14.38 16.54C14.38 15.1924 13.2876 14.1 11.94 14.1C10.5924 14.1 9.5 15.1924 9.5 16.54C9.5 17.8876 10.5924 18.98 11.94 18.98Z" fill="#DDEFFE"/>
</svg>
