<svg width="72" height="39" viewBox="0 0 72 39" fill="none" xmlns="http://www.w3.org/2000/svg">
<mask id="mask0_130_1601" style="mask-type:luminance" maskUnits="userSpaceOnUse" x="0" y="0" width="72" height="39">
<path d="M0 0H71.6727V38.5767H0V0Z" fill="white"/>
</mask>
<g mask="url(#mask0_130_1601)">
<path d="M35.8339 0.0194092C16.0421 0.0194092 0 19.2885 0 19.2885C0 19.2885 16.0421 38.5577 35.8339 38.5577C55.6258 38.5577 71.6727 19.2885 71.6727 19.2885C71.6727 19.2885 55.6258 0.0194092 35.8339 0.0194092ZM35.8339 33.3247C34.9109 33.3247 33.9975 33.2334 33.0938 33.0508C32.19 32.873 31.3102 32.6088 30.4593 32.2532C29.6084 31.9024 28.796 31.4699 28.0316 30.9557C27.2624 30.4464 26.5558 29.8649 25.902 29.2114C25.2482 28.5627 24.6665 27.8515 24.1569 27.0875C23.6425 26.3187 23.2099 25.5114 22.8589 24.6608C22.5032 23.8103 22.2388 22.9309 22.0561 22.0275C21.8782 21.1242 21.7869 20.2112 21.7869 19.2885C21.7869 18.3659 21.8782 17.4529 22.0561 16.5495C22.2388 15.6461 22.5032 14.7716 22.8589 13.9163C23.2099 13.0657 23.6425 12.2584 24.1569 11.4896C24.6665 10.7256 25.2482 10.0192 25.902 9.36566C26.5558 8.71214 27.2624 8.13071 28.0316 7.62135C28.796 7.10718 29.6084 6.67471 30.4593 6.32392C31.3102 5.96833 32.19 5.70404 33.0938 5.52625C33.9975 5.34365 34.9109 5.25715 35.8339 5.25715C36.757 5.25715 37.6703 5.34365 38.5741 5.52625C39.4827 5.70404 40.3577 5.96833 41.2134 6.32392C42.0643 6.67471 42.8719 7.10718 43.6411 7.62135C44.4054 8.13071 45.1169 8.71214 45.7707 9.36566C46.4197 10.0192 47.0014 10.7256 47.5158 11.4896C48.0302 12.2584 48.4628 13.0657 48.8138 13.9163C49.1647 14.7716 49.4339 15.6461 49.6118 16.5495C49.7945 17.4529 49.881 18.3659 49.881 19.2885C49.881 20.2112 49.7945 21.1242 49.6118 22.0275C49.4339 22.9309 49.1647 23.8103 48.8138 24.6608C48.4628 25.5114 48.0302 26.3187 47.5158 27.0875C47.0014 27.8515 46.4197 28.5627 45.7707 29.2114C45.1169 29.8649 44.4054 30.4464 43.6411 30.9557C42.8719 31.4699 42.0643 31.9024 41.2134 32.2532C40.3577 32.6088 39.4827 32.873 38.5741 33.0508C37.6703 33.2334 36.757 33.3247 35.8339 33.3247Z" fill="#70D6FF"/>
</g>
<path d="M43.5209 19.2884C43.5209 19.793 43.4728 20.2927 43.3766 20.7877C43.2757 21.2826 43.1315 21.7632 42.9392 22.2293C42.7421 22.6954 42.5065 23.1375 42.2277 23.5555C41.944 23.9736 41.6268 24.3628 41.271 24.7184C40.9153 25.074 40.5259 25.3959 40.1076 25.6746C39.6846 25.9534 39.2423 26.1888 38.776 26.381C38.3097 26.578 37.829 26.7222 37.3338 26.8183C36.8387 26.9192 36.3387 26.9673 35.8339 26.9673C35.3291 26.9673 34.8292 26.9192 34.334 26.8183C33.8389 26.7222 33.3581 26.578 32.8918 26.381C32.4255 26.1888 31.9832 25.9534 31.565 25.6746C31.1468 25.3911 30.7574 25.074 30.4016 24.7184C30.0411 24.3628 29.7238 23.9736 29.445 23.5555C29.1613 23.1375 28.9258 22.6954 28.7335 22.2293C28.5412 21.7632 28.3921 21.2826 28.296 20.7877C28.1999 20.2927 28.147 19.793 28.147 19.2884C28.147 18.7839 28.1999 18.2841 28.296 17.7892C28.3921 17.2943 28.5412 16.8137 28.7335 16.3476C28.9258 15.8863 29.1613 15.4394 29.445 15.0214C29.7238 14.6033 30.0411 14.2141 30.4016 13.8585C30.7574 13.5029 31.1468 13.1857 31.565 12.9022C31.9832 12.6235 32.4255 12.3881 32.8918 12.1959C33.3581 11.9988 33.8389 11.8547 34.334 11.7586C34.8292 11.6577 35.3291 11.6096 35.8339 11.6096C36.3387 11.6096 36.8387 11.6577 37.3338 11.7586C37.829 11.8547 38.3097 11.9988 38.776 12.1959C39.2423 12.3881 39.6846 12.6235 40.1076 12.9022C40.5259 13.1857 40.9153 13.5029 41.271 13.8585C41.6268 14.2141 41.944 14.6033 42.2277 15.0214C42.5065 15.4394 42.7421 15.8863 42.9392 16.3476C43.1315 16.8137 43.2757 17.2943 43.3766 17.7892C43.4728 18.2841 43.5209 18.7839 43.5209 19.2884Z" fill="#70D6FF"/>
</svg>
