<svg width="20" height="21" viewBox="0 0 20 21" fill="none" xmlns="http://www.w3.org/2000/svg">
<mask id="mask0_148_4257" style="mask-type:luminance" maskUnits="userSpaceOnUse" x="0" y="0" width="20" height="21">
<path d="M0 0.0289726H19.9747V20.0121H0V0.0289726Z" fill="white"/>
</mask>
<g mask="url(#mask0_148_4257)">
<mask id="mask1_148_4257" style="mask-type:luminance" maskUnits="userSpaceOnUse" x="0" y="0" width="20" height="21">
<path d="M19.9747 10.0207C19.9747 10.1841 19.9708 10.3474 19.9625 10.5107C19.9547 10.674 19.9426 10.8374 19.9265 10.9998C19.9104 11.1627 19.8905 11.3247 19.8666 11.4867C19.8427 11.6483 19.8145 11.8095 19.7828 11.9697C19.7507 12.13 19.7151 12.2899 19.6756 12.4484C19.6356 12.607 19.5922 12.7646 19.5444 12.921C19.4971 13.0774 19.4459 13.2325 19.3907 13.3867C19.3356 13.5404 19.277 13.6933 19.2145 13.844C19.1519 13.9952 19.0855 14.1446 19.0156 14.2923C18.9457 14.4404 18.8723 14.5864 18.7955 14.7306C18.7182 14.8748 18.6379 15.0168 18.5536 15.1571C18.4698 15.2974 18.3821 15.4356 18.2914 15.5715C18.2007 15.7075 18.1064 15.8413 18.0092 15.9724C17.9119 16.1041 17.8112 16.2326 17.7074 16.359C17.6041 16.4854 17.4973 16.6092 17.3874 16.7304C17.2776 16.8516 17.1651 16.9702 17.0497 17.0857C16.9337 17.2013 16.8156 17.3142 16.6945 17.4237C16.5734 17.5336 16.4496 17.6404 16.3233 17.7442C16.1969 17.8481 16.068 17.9484 15.9369 18.0461C15.8053 18.1434 15.672 18.2377 15.5361 18.3285C15.4002 18.4192 15.2622 18.5066 15.1219 18.5908C14.9817 18.6747 14.8397 18.7554 14.6956 18.8323C14.5514 18.9096 14.4051 18.9831 14.2575 19.053C14.1099 19.1229 13.9605 19.1889 13.8094 19.2515C13.6583 19.314 13.5059 19.3731 13.3518 19.4283C13.1981 19.4834 13.0431 19.5347 12.8863 19.582C12.73 19.6294 12.5724 19.6733 12.414 19.7128C12.2555 19.7523 12.0961 19.7884 11.9359 19.8201C11.7753 19.8522 11.6146 19.88 11.4527 19.9039C11.2912 19.9282 11.1288 19.9482 10.9664 19.9643C10.8036 19.9799 10.6408 19.9921 10.4775 20.0003C10.3143 20.0082 10.151 20.0121 9.98735 20.0121C9.8241 20.0121 9.66042 20.0082 9.49717 20.0003C9.33392 19.9921 9.1711 19.9799 9.00828 19.9643C8.8459 19.9482 8.68352 19.9282 8.52201 19.9039C8.36006 19.88 8.19941 19.8522 8.03877 19.8201C7.87856 19.7884 7.71922 19.7523 7.56074 19.7128C7.40227 19.6733 7.24466 19.6294 7.08836 19.582C6.93162 19.5347 6.77662 19.4834 6.62292 19.4283C6.46879 19.3731 6.31639 19.314 6.1653 19.2515C6.01421 19.1889 5.86485 19.1229 5.71723 19.053C5.56961 18.9831 5.42373 18.9096 5.27958 18.8323C5.13543 18.7554 4.99302 18.6747 4.85279 18.5908C4.71255 18.5066 4.57448 18.4192 4.43858 18.3285C4.30268 18.2377 4.16939 18.1434 4.03784 18.0461C3.90672 17.9484 3.77777 17.8481 3.65142 17.7442C3.52507 17.6404 3.40133 17.5336 3.2802 17.4237C3.15906 17.3142 3.04097 17.2013 2.92548 17.0857C2.80955 16.9702 2.6971 16.8516 2.58725 16.7304C2.47741 16.6092 2.3706 16.4854 2.26727 16.359C2.1635 16.2326 2.06277 16.1041 1.96551 15.9724C1.86826 15.8413 1.77404 15.7075 1.6833 15.5715C1.59256 15.4356 1.50485 15.2974 1.42106 15.1571C1.33683 15.0168 1.25651 14.8748 1.17922 14.7306C1.10237 14.5864 1.029 14.4404 0.959095 14.2923C0.889192 14.1446 0.822764 13.9952 0.760242 13.844C0.697721 13.6933 0.639107 13.5404 0.583967 13.3867C0.528826 13.2325 0.477594 13.0774 0.430268 12.921C0.382509 12.7646 0.339091 12.607 0.299581 12.4484C0.259637 12.2899 0.224035 12.13 0.191906 11.9697C0.160211 11.8095 0.13199 11.6483 0.10811 11.4867C0.0842302 11.3247 0.064258 11.1627 0.0481935 10.9998C0.0321291 10.8374 0.019972 10.674 0.0121569 10.5107C0.00390756 10.3474 0 10.1841 0 10.0207C0 9.85698 0.00390756 9.69366 0.0121569 9.53034C0.019972 9.36702 0.0321291 9.20369 0.0481935 9.04124C0.064258 8.87835 0.0842302 8.71633 0.10811 8.55431C0.13199 8.39273 0.160211 8.23158 0.191906 8.0713C0.224035 7.91101 0.259637 7.75117 0.299581 7.59262C0.339091 7.43408 0.382509 7.2764 0.430268 7.12003C0.477594 6.96366 0.528826 6.80859 0.583967 6.65439C0.639107 6.50062 0.697721 6.34816 0.760242 6.197C0.822764 6.04584 0.889192 5.89642 0.959095 5.74873C1.029 5.60061 1.10237 5.45466 1.17922 5.31045C1.25651 5.16624 1.33683 5.0242 1.42106 4.8839C1.50485 4.7436 1.59256 4.60547 1.6833 4.46952C1.77404 4.33356 1.86826 4.19977 1.96551 4.06859C2.06277 3.93698 2.1635 3.80841 2.26727 3.68201C2.3706 3.55561 2.47741 3.43181 2.58725 3.31062C2.6971 3.18943 2.80955 3.07085 2.92548 2.95531C3.04097 2.83977 3.15906 2.72683 3.2802 2.61737C3.40133 2.50748 3.52507 2.40062 3.65142 2.29681C3.77777 2.19299 3.90672 2.09265 4.03784 1.99492C4.16939 1.89762 4.30268 1.8038 4.43858 1.71258C4.57448 1.6218 4.71255 1.53449 4.85279 1.45022C4.99302 1.36639 5.13543 1.2856 5.27958 1.20872C5.42373 1.1314 5.56961 1.05799 5.71723 0.988057C5.86485 0.918124 6.01421 0.8521 6.1653 0.789551C6.31639 0.727002 6.46879 0.667928 6.62292 0.612763C6.77662 0.558033 6.93162 0.506343 7.08836 0.458997C7.24466 0.411651 7.40227 0.368214 7.56074 0.328252C7.71922 0.288725 7.87856 0.252672 8.03877 0.220963C8.19941 0.18882 8.36006 0.161021 8.52201 0.13713C8.68352 0.112806 8.8459 0.0928247 9.00828 0.0767531C9.1711 0.0611159 9.33392 0.0489536 9.49717 0.0407006C9.66042 0.032882 9.8241 0.0289726 9.98735 0.0289726C10.151 0.0289726 10.3143 0.032882 10.4775 0.0407006C10.6408 0.0489536 10.8036 0.0611159 10.9664 0.0767531C11.1288 0.0928247 11.2912 0.112806 11.4527 0.13713C11.6146 0.161021 11.7753 0.18882 11.9359 0.220963C12.0961 0.252672 12.2555 0.288725 12.414 0.328252C12.5724 0.368214 12.73 0.411651 12.8863 0.458997C13.0431 0.506343 13.1981 0.558033 13.3518 0.612763C13.5059 0.667928 13.6583 0.727002 13.8094 0.789551C13.9605 0.8521 14.1099 0.918124 14.2575 0.988057C14.4051 1.05799 14.5514 1.1314 14.6956 1.20872C14.8397 1.2856 14.9817 1.36639 15.1219 1.45022C15.2622 1.53449 15.4002 1.6218 15.5361 1.71258C15.672 1.8038 15.8053 1.89762 15.9369 1.99492C16.068 2.09265 16.1969 2.19299 16.3233 2.29681C16.4496 2.40062 16.5734 2.50748 16.6945 2.61737C16.8156 2.72683 16.9337 2.83977 17.0497 2.95531C17.1651 3.07085 17.2776 3.18943 17.3874 3.31062C17.4973 3.43181 17.6041 3.55561 17.7074 3.68201C17.8112 3.80841 17.9119 3.93698 18.0092 4.06859C18.1064 4.19977 18.2007 4.33356 18.2914 4.46952C18.3821 4.60547 18.4698 4.7436 18.5536 4.8839C18.6379 5.0242 18.7182 5.16624 18.7955 5.31045C18.8723 5.45466 18.9457 5.60061 19.0156 5.74873C19.0855 5.89642 19.1519 6.04584 19.2145 6.197C19.277 6.34816 19.3356 6.50062 19.3907 6.65439C19.4459 6.80859 19.4971 6.96366 19.5444 7.12003C19.5922 7.2764 19.6356 7.43408 19.6756 7.59262C19.7151 7.75117 19.7507 7.91101 19.7828 8.0713C19.8145 8.23158 19.8427 8.39273 19.8666 8.55431C19.8905 8.71633 19.9104 8.87835 19.9265 9.04124C19.9426 9.20369 19.9547 9.36702 19.9625 9.53034C19.9708 9.69366 19.9747 9.85698 19.9747 10.0207Z" fill="white"/>
</mask>
<g mask="url(#mask1_148_4257)">
<path d="M0 0.0289726V20.0121H19.9747V0.0289726H0Z" fill="url(#paint0_linear_148_4257)"/>
</g>
</g>
<path d="M12.6669 16.0506H7.34256C5.49644 16.0506 3.99463 14.5481 3.99463 12.7012V7.37455C3.99463 5.52762 5.49644 4.02557 7.34256 4.02557H12.6669C14.513 4.02557 16.0144 5.52762 16.0144 7.37455V12.7012C16.0144 14.5481 14.513 16.0506 12.6669 16.0506ZM7.34256 4.83958C5.94538 4.83958 4.80827 5.97675 4.80827 7.37455V12.7012C4.80827 14.099 5.94538 15.2366 7.34256 15.2366H12.6669C14.064 15.2366 15.2007 14.099 15.2007 12.7012V7.37455C15.2007 5.97675 14.064 4.83958 12.6669 4.83958H7.34256Z" fill="white"/>
<path d="M10.005 13.0166C8.36336 13.0166 7.02783 11.6804 7.02783 10.0381C7.02783 8.39576 8.36336 7.05964 10.005 7.05964C11.6466 7.05964 12.9817 8.39576 12.9817 10.0381C12.9817 11.6804 11.6466 13.0166 10.005 13.0166ZM10.005 7.87365C8.81186 7.87365 7.84148 8.84446 7.84148 10.0381C7.84148 11.2313 8.8123 12.2021 10.005 12.2021C11.1977 12.2021 12.168 11.2313 12.168 10.0381C12.168 8.84446 11.1977 7.87365 10.005 7.87365Z" fill="white"/>
<defs>
<linearGradient id="paint0_linear_148_4257" x1="0.00333893" y1="20.0155" x2="19.9868" y2="0.0409643" gradientUnits="userSpaceOnUse">
<stop stop-color="#FEC053"/>
<stop offset="0.125" stop-color="#FEC053"/>
<stop offset="0.140625" stop-color="#FEC053"/>
<stop offset="0.144531" stop-color="#FEC053"/>
<stop offset="0.148438" stop-color="#FEBF53"/>
<stop offset="0.152344" stop-color="#FEBD52"/>
<stop offset="0.15625" stop-color="#FEBB52"/>
<stop offset="0.160156" stop-color="#FDB952"/>
<stop offset="0.164062" stop-color="#FDB852"/>
<stop offset="0.167969" stop-color="#FDB652"/>
<stop offset="0.171875" stop-color="#FDB451"/>
<stop offset="0.175781" stop-color="#FDB251"/>
<stop offset="0.179687" stop-color="#FDB051"/>
<stop offset="0.183594" stop-color="#FDAE51"/>
<stop offset="0.1875" stop-color="#FCAC50"/>
<stop offset="0.191406" stop-color="#FCAA50"/>
<stop offset="0.195312" stop-color="#FCA950"/>
<stop offset="0.199219" stop-color="#FCA750"/>
<stop offset="0.203125" stop-color="#FCA54F"/>
<stop offset="0.207031" stop-color="#FCA34F"/>
<stop offset="0.210938" stop-color="#FCA14F"/>
<stop offset="0.214844" stop-color="#FC9F4F"/>
<stop offset="0.21875" stop-color="#FB9D4E"/>
<stop offset="0.222656" stop-color="#FB9B4E"/>
<stop offset="0.226562" stop-color="#FB9A4E"/>
<stop offset="0.230469" stop-color="#FB984E"/>
<stop offset="0.234375" stop-color="#FB964D"/>
<stop offset="0.238281" stop-color="#FB944D"/>
<stop offset="0.242187" stop-color="#FB924D"/>
<stop offset="0.246094" stop-color="#FA904D"/>
<stop offset="0.25" stop-color="#FA8E4C"/>
<stop offset="0.253906" stop-color="#FA8C4C"/>
<stop offset="0.257812" stop-color="#FA8B4C"/>
<stop offset="0.261719" stop-color="#FA894C"/>
<stop offset="0.265625" stop-color="#FA874B"/>
<stop offset="0.269531" stop-color="#FA854B"/>
<stop offset="0.273437" stop-color="#F9834B"/>
<stop offset="0.277344" stop-color="#F9814B"/>
<stop offset="0.28125" stop-color="#F97F4A"/>
<stop offset="0.285156" stop-color="#F97D4A"/>
<stop offset="0.289062" stop-color="#F97C4A"/>
<stop offset="0.292969" stop-color="#F97A4A"/>
<stop offset="0.296875" stop-color="#F97849"/>
<stop offset="0.300781" stop-color="#F87649"/>
<stop offset="0.304687" stop-color="#F87449"/>
<stop offset="0.308594" stop-color="#F87249"/>
<stop offset="0.3125" stop-color="#F87048"/>
<stop offset="0.316406" stop-color="#F86E48"/>
<stop offset="0.320312" stop-color="#F86D48"/>
<stop offset="0.324219" stop-color="#F86B48"/>
<stop offset="0.328125" stop-color="#F76947"/>
<stop offset="0.332031" stop-color="#F76747"/>
<stop offset="0.335938" stop-color="#F76547"/>
<stop offset="0.339844" stop-color="#F76347"/>
<stop offset="0.34375" stop-color="#F76147"/>
<stop offset="0.347656" stop-color="#F75F46"/>
<stop offset="0.351562" stop-color="#F75E46"/>
<stop offset="0.355469" stop-color="#F65C46"/>
<stop offset="0.359375" stop-color="#F65A46"/>
<stop offset="0.363281" stop-color="#F65845"/>
<stop offset="0.367187" stop-color="#F65645"/>
<stop offset="0.371094" stop-color="#F65445"/>
<stop offset="0.375" stop-color="#F65245"/>
<stop offset="0.378906" stop-color="#F65044"/>
<stop offset="0.382813" stop-color="#F54E44"/>
<stop offset="0.386719" stop-color="#F54D44"/>
<stop offset="0.390625" stop-color="#F54B44"/>
<stop offset="0.394531" stop-color="#F54943"/>
<stop offset="0.398438" stop-color="#F54743"/>
<stop offset="0.402344" stop-color="#F54543"/>
<stop offset="0.40625" stop-color="#F54343"/>
<stop offset="0.410156" stop-color="#F44142"/>
<stop offset="0.414062" stop-color="#F43F42"/>
<stop offset="0.417969" stop-color="#F43E42"/>
<stop offset="0.421875" stop-color="#F43C42"/>
<stop offset="0.425781" stop-color="#F43A41"/>
<stop offset="0.429688" stop-color="#F43841"/>
<stop offset="0.433594" stop-color="#F43641"/>
<stop offset="0.4375" stop-color="#F43441"/>
<stop offset="0.441406" stop-color="#F33240"/>
<stop offset="0.445312" stop-color="#F33040"/>
<stop offset="0.449219" stop-color="#F32F40"/>
<stop offset="0.453125" stop-color="#F32D40"/>
<stop offset="0.457031" stop-color="#F32B3F"/>
<stop offset="0.460937" stop-color="#F3293F"/>
<stop offset="0.464844" stop-color="#F3273F"/>
<stop offset="0.46875" stop-color="#F2253F"/>
<stop offset="0.472656" stop-color="#F2233E"/>
<stop offset="0.476562" stop-color="#F2213E"/>
<stop offset="0.480469" stop-color="#F1213F"/>
<stop offset="0.484375" stop-color="#F02041"/>
<stop offset="0.488281" stop-color="#EF2043"/>
<stop offset="0.492188" stop-color="#EE2046"/>
<stop offset="0.496094" stop-color="#EC2048"/>
<stop offset="0.5" stop-color="#EB204A"/>
<stop offset="0.503906" stop-color="#EA204D"/>
<stop offset="0.507812" stop-color="#E8204F"/>
<stop offset="0.511719" stop-color="#E72052"/>
<stop offset="0.515625" stop-color="#E62054"/>
<stop offset="0.519531" stop-color="#E42057"/>
<stop offset="0.523437" stop-color="#E32059"/>
<stop offset="0.527344" stop-color="#E2205B"/>
<stop offset="0.53125" stop-color="#E0205E"/>
<stop offset="0.535156" stop-color="#DF2060"/>
<stop offset="0.539062" stop-color="#DE2063"/>
<stop offset="0.542969" stop-color="#DC2065"/>
<stop offset="0.546875" stop-color="#DB2068"/>
<stop offset="0.550781" stop-color="#D9206A"/>
<stop offset="0.554688" stop-color="#D8206D"/>
<stop offset="0.558594" stop-color="#D7206F"/>
<stop offset="0.5625" stop-color="#D52071"/>
<stop offset="0.566406" stop-color="#D41F74"/>
<stop offset="0.570312" stop-color="#D31F76"/>
<stop offset="0.574219" stop-color="#D11F79"/>
<stop offset="0.578125" stop-color="#D01F7B"/>
<stop offset="0.582031" stop-color="#CF1F7E"/>
<stop offset="0.585938" stop-color="#CD1F80"/>
<stop offset="0.589844" stop-color="#CC1F82"/>
<stop offset="0.59375" stop-color="#CB1F85"/>
<stop offset="0.597656" stop-color="#C91F87"/>
<stop offset="0.601562" stop-color="#C81F8A"/>
<stop offset="0.605469" stop-color="#C71F8C"/>
<stop offset="0.609375" stop-color="#C51F8F"/>
<stop offset="0.613281" stop-color="#C41F91"/>
<stop offset="0.617188" stop-color="#C31F93"/>
<stop offset="0.621094" stop-color="#C11F96"/>
<stop offset="0.625" stop-color="#C01F98"/>
<stop offset="0.628906" stop-color="#BE1F9B"/>
<stop offset="0.632812" stop-color="#BD1F9D"/>
<stop offset="0.636719" stop-color="#BC1FA0"/>
<stop offset="0.640625" stop-color="#BA1FA2"/>
<stop offset="0.644531" stop-color="#B91FA4"/>
<stop offset="0.648438" stop-color="#B81FA7"/>
<stop offset="0.652344" stop-color="#B620A8"/>
<stop offset="0.65625" stop-color="#B421A9"/>
<stop offset="0.660156" stop-color="#B222AA"/>
<stop offset="0.664062" stop-color="#B023AB"/>
<stop offset="0.667969" stop-color="#AE23AC"/>
<stop offset="0.671875" stop-color="#AC24AD"/>
<stop offset="0.675781" stop-color="#AA25AE"/>
<stop offset="0.679687" stop-color="#A926AF"/>
<stop offset="0.683594" stop-color="#A727B0"/>
<stop offset="0.6875" stop-color="#A528B0"/>
<stop offset="0.691406" stop-color="#A329B1"/>
<stop offset="0.695312" stop-color="#A12AB2"/>
<stop offset="0.699219" stop-color="#9F2BB3"/>
<stop offset="0.703125" stop-color="#9D2CB4"/>
<stop offset="0.707031" stop-color="#9B2DB5"/>
<stop offset="0.710938" stop-color="#992EB6"/>
<stop offset="0.714844" stop-color="#972FB7"/>
<stop offset="0.71875" stop-color="#9530B8"/>
<stop offset="0.722656" stop-color="#9331B8"/>
<stop offset="0.726562" stop-color="#9132B9"/>
<stop offset="0.730469" stop-color="#8F33BA"/>
<stop offset="0.734375" stop-color="#8E34BB"/>
<stop offset="0.738281" stop-color="#8C35BC"/>
<stop offset="0.742187" stop-color="#8A36BD"/>
<stop offset="0.746094" stop-color="#8837BE"/>
<stop offset="0.75" stop-color="#8638BF"/>
<stop offset="0.753906" stop-color="#8439BF"/>
<stop offset="0.757812" stop-color="#823AC0"/>
<stop offset="0.761719" stop-color="#803BC1"/>
<stop offset="0.765625" stop-color="#7E3CC2"/>
<stop offset="0.769531" stop-color="#7C3CC3"/>
<stop offset="0.773438" stop-color="#7A3DC4"/>
<stop offset="0.777344" stop-color="#783EC5"/>
<stop offset="0.78125" stop-color="#763FC6"/>
<stop offset="0.785156" stop-color="#7440C7"/>
<stop offset="0.789062" stop-color="#7341C7"/>
<stop offset="0.792969" stop-color="#7142C8"/>
<stop offset="0.796875" stop-color="#6F43C9"/>
<stop offset="0.800781" stop-color="#6D44CA"/>
<stop offset="0.804688" stop-color="#6B45CB"/>
<stop offset="0.808594" stop-color="#6946CC"/>
<stop offset="0.8125" stop-color="#6747CD"/>
<stop offset="0.816406" stop-color="#6548CE"/>
<stop offset="0.820312" stop-color="#6349CF"/>
<stop offset="0.824219" stop-color="#614ACF"/>
<stop offset="0.828125" stop-color="#5F4BD0"/>
<stop offset="0.832031" stop-color="#5D4CD1"/>
<stop offset="0.835937" stop-color="#5B4DD2"/>
<stop offset="0.839844" stop-color="#594ED3"/>
<stop offset="0.84375" stop-color="#574FD4"/>
<stop offset="0.847656" stop-color="#5650D5"/>
<stop offset="0.851562" stop-color="#5451D6"/>
<stop offset="0.859375" stop-color="#5351D6"/>
<stop offset="0.875" stop-color="#5351D6"/>
<stop offset="1" stop-color="#5351D6"/>
</linearGradient>
</defs>
</svg>
