<svg width="26" height="26" viewBox="0 0 26 26" fill="none" xmlns="http://www.w3.org/2000/svg">
<mask id="mask0_418_102" style="mask-type:luminance" maskUnits="userSpaceOnUse" x="0" y="0" width="26" height="26">
<path d="M0 0H25.0253V25.0363H0V0Z" fill="white"/>
</mask>
<g mask="url(#mask0_418_102)">
<mask id="mask1_418_102" style="mask-type:luminance" maskUnits="userSpaceOnUse" x="0" y="0" width="26" height="26">
<path d="M12.5126 0C5.6022 0 0 5.60468 0 12.5182C0 19.4317 5.6022 25.0363 12.5126 25.0363C19.4231 25.0363 25.0253 19.4317 25.0253 12.5182C25.0253 5.60468 19.4231 0 12.5126 0Z" fill="white"/>
</mask>
<g mask="url(#mask1_418_102)">
<path d="M0 0H25.0253V25.0363H0V0Z" fill="#2097BD"/>
</g>
</g>
<mask id="mask2_418_102" style="mask-type:luminance" maskUnits="userSpaceOnUse" x="6" y="4" width="15" height="17">
<path d="M6.22778 4.79382H20.8436V20.2222H6.22778V4.79382Z" fill="white"/>
</mask>
<g mask="url(#mask2_418_102)">
<path d="M22.177 17.145C22.177 18.8454 20.7986 20.2239 19.0989 20.2239H5.00001C3.30032 20.2239 1.92243 18.8454 1.92243 17.145V3.0393C1.92243 1.33886 3.30032 -0.0396347 5.00001 -0.0396347H19.0989C20.7992 -0.0396347 22.177 1.33886 22.177 3.0393V17.145Z" fill="#2197BD"/>
</g>
<path d="M9.93097 7.18981C9.93097 7.28891 9.92136 7.38742 9.90215 7.48533C9.88293 7.58263 9.85412 7.67693 9.81629 7.76883C9.77787 7.86073 9.73164 7.94783 9.6764 8.03072C9.62117 8.11361 9.55813 8.18989 9.48788 8.26017C9.41764 8.33044 9.34139 8.39291 9.25853 8.44817C9.17628 8.50343 9.08922 8.55028 8.99737 8.58812C8.90551 8.62656 8.81065 8.65479 8.71338 8.67462C8.61612 8.69384 8.51766 8.70345 8.41799 8.70345C8.31893 8.70345 8.22047 8.69384 8.1232 8.67462C8.02534 8.65479 7.93108 8.62656 7.83922 8.58812C7.74736 8.55028 7.66031 8.50343 7.57745 8.44817C7.4952 8.39291 7.41835 8.33044 7.34811 8.26017C7.27786 8.18989 7.21542 8.11361 7.16019 8.03072C7.10495 7.94783 7.05812 7.86073 7.0203 7.76883C6.98247 7.67693 6.95365 7.58263 6.93444 7.48533C6.91463 7.38742 6.90502 7.28891 6.90502 7.18981C6.90502 7.0901 6.91463 6.99219 6.93444 6.89429C6.95365 6.79698 6.98247 6.70208 7.0203 6.61018C7.05812 6.51888 7.10495 6.43118 7.16019 6.34889C7.21542 6.266 7.27786 6.18972 7.34811 6.11945C7.41835 6.04917 7.4952 5.9861 7.57745 5.93084C7.66031 5.87618 7.74736 5.82933 7.83922 5.79149C7.93108 5.75305 8.02534 5.72422 8.1232 5.705C8.22047 5.68578 8.31893 5.67616 8.41799 5.67616C8.51766 5.67616 8.61612 5.68578 8.71338 5.705C8.81065 5.72422 8.90551 5.75305 8.99737 5.79149C9.08922 5.82933 9.17628 5.87618 9.25853 5.93084C9.34139 5.9861 9.41764 6.04917 9.48788 6.11945C9.55813 6.18972 9.62117 6.266 9.6764 6.34889C9.73164 6.43118 9.77787 6.51888 9.81629 6.61018C9.85412 6.70208 9.88293 6.79698 9.90215 6.89429C9.92136 6.99219 9.93097 7.0901 9.93097 7.18981Z" fill="white"/>
<path d="M7.11396 9.81947H9.71303V18.1853H7.11396V9.81947Z" fill="white"/>
<path d="M11.3479 9.81947H13.8221V18.1853H11.3479V9.81947Z" fill="white"/>
<path d="M13.9289 14.2738C13.9289 14.2738 13.8905 13.1885 14.1763 12.6245C14.1763 12.6245 14.4627 11.9295 15.3614 11.9253C15.3614 11.9253 16.4163 11.7415 16.7189 12.7884C16.7189 12.7884 16.833 13.3687 16.833 13.6143C16.833 13.8594 16.8414 18.1859 16.8414 18.1859H19.4327V13.3933C19.4327 13.3933 19.6206 10.6861 17.9965 9.94495C17.9965 9.94495 15.326 8.74545 13.8767 10.948C13.8767 10.948 13.5609 11.1661 13.5171 10.5552C13.4732 9.94495 13.1028 11.4934 13.092 11.5259C13.0812 11.5589 13.5171 14.612 13.5171 14.612L13.9289 14.2738Z" fill="white"/>
</svg>
