<svg width="51" height="51" viewBox="0 0 51 51" fill="none" xmlns="http://www.w3.org/2000/svg">
<mask id="mask0_142_3153" style="mask-type:luminance" maskUnits="userSpaceOnUse" x="0" y="0" width="51" height="51">
<path d="M0 0H51V50.9938H0V0Z" fill="white"/>
</mask>
<g mask="url(#mask0_142_3153)">
<path d="M43.538 7.46981C48.3584 12.2845 51.0093 18.6885 51.0093 25.4993C51.0093 32.3146 48.3584 38.714 43.538 43.5287C38.7222 48.3481 32.3168 50.9985 25.5047 50.9985C18.6878 50.9985 12.2871 48.3481 7.4714 43.5287C2.65099 38.714 0 32.31 0 25.4993C0 18.6885 2.65099 12.2845 7.4714 7.46981C12.2871 2.6551 18.6925 0 25.5047 0C32.3168 0 38.7222 2.6551 43.538 7.46981Z" fill="#EAECF0"/>
</g>
<path d="M25.5047 9.13379C19.0245 9.13379 13.7692 14.3879 13.7692 20.8667C13.7692 27.3455 25.5047 40.9857 25.5047 40.9857C25.5047 40.9857 37.2401 27.3455 37.2401 20.8667C37.2401 14.3879 31.9848 9.13379 25.5047 9.13379ZM25.5047 26.3312C22.4843 26.3312 20.039 23.8818 20.039 20.8667C20.039 17.8517 22.4843 15.4023 25.5047 15.4023C28.5203 15.4023 30.9703 17.8517 30.9703 20.8667C30.9703 23.8818 28.5203 26.3312 25.5047 26.3312Z" fill="#457AA5"/>
</svg>
