<svg width="64" height="52" viewBox="0 0 64 52" fill="none" xmlns="http://www.w3.org/2000/svg">
<mask id="mask0_130_1553" style="mask-type:luminance" maskUnits="userSpaceOnUse" x="0" y="0" width="64" height="52">
<path d="M0 0H63.4682V51.7539H0V0Z" fill="white"/>
</mask>
<g mask="url(#mask0_130_1553)">
<path d="M29.247 44.706C29.445 44.9233 29.5995 45.1695 29.7058 45.4446C29.812 45.7246 29.8651 46.0094 29.8651 46.3087C29.8603 46.6032 29.8024 46.888 29.6865 47.1631C29.5754 47.4383 29.416 47.6797 29.2083 47.8969C28.455 48.7272 27.6581 49.5092 26.8178 50.2526C26.4169 50.5375 25.9775 50.7692 25.5138 50.9333C25.0164 50.9767 24.5528 50.8802 24.1181 50.6437C23.6835 50.4071 23.3503 50.0692 23.1233 49.6347C22.8915 49.2486 22.7949 48.8334 22.8287 48.3893C22.8673 47.9452 23.0315 47.5542 23.3213 47.2114C24.1713 46.2266 25.0937 45.3046 26.0789 44.4502C26.3059 44.2571 26.5618 44.1171 26.8419 44.0254C27.1269 43.9337 27.4166 43.8999 27.7161 43.924C28.0106 43.9481 28.2908 44.0254 28.5564 44.1605C28.822 44.2957 29.0538 44.4791 29.247 44.706ZM13.9619 29.7075C13.7542 29.2682 13.4499 28.9158 13.0443 28.6503C12.6386 28.3848 12.1895 28.2448 11.7065 28.2303C11.1994 28.4041 10.7213 28.6407 10.277 28.9351C9.39807 29.7123 8.56741 30.5378 7.78504 31.4115C7.57255 31.6288 7.41318 31.8798 7.3021 32.1646C7.19102 32.4494 7.1379 32.7439 7.14756 33.048C7.15722 33.3521 7.22483 33.6418 7.35039 33.9169C7.47596 34.1921 7.65465 34.4335 7.8768 34.641C8.08446 34.8534 8.32594 35.0176 8.60121 35.1334C8.87649 35.2541 9.16142 35.3169 9.46085 35.3217C9.75544 35.3313 10.0452 35.2831 10.3253 35.1769C10.6006 35.0707 10.8517 34.9162 11.069 34.7183C11.9625 33.9121 12.8076 33.0673 13.6141 32.1743C13.9329 31.846 14.1309 31.455 14.1937 30.9964C14.2565 30.5426 14.1792 30.113 13.9619 29.7075ZM18.6657 34.168C18.4436 33.9652 18.1876 33.8059 17.9075 33.6997C17.6226 33.5935 17.328 33.5404 17.0237 33.5404C16.7195 33.5452 16.4297 33.6032 16.1496 33.719C15.8695 33.8349 15.6184 33.9942 15.3962 34.2066C14.5704 34.9596 13.7832 35.7561 13.0394 36.5913C12.7642 36.9726 12.5517 37.3781 12.3923 37.8223C12.3344 38.3243 12.4261 38.8022 12.6724 39.2511C12.9139 39.7001 13.2664 40.038 13.7252 40.2601C14.1406 40.4869 14.5849 40.569 15.0533 40.5111C15.5266 40.4531 15.9323 40.2601 16.28 39.9366C17.1493 39.1498 17.9848 38.3291 18.7768 37.465C18.9941 37.243 19.1583 36.9871 19.2742 36.6927C19.3853 36.403 19.4384 36.1037 19.4288 35.7899C19.4191 35.481 19.3467 35.1817 19.2163 34.9017C19.0811 34.6217 18.8975 34.3755 18.6657 34.168ZM24.6639 41.4138C24.5721 40.1345 24.1664 39.367 23.2344 38.947C22.7949 38.7346 22.3361 38.6719 21.858 38.7588C21.375 38.8408 20.9694 39.0629 20.6313 39.4153C19.8489 40.1345 19.0955 40.9021 18.3566 41.6696C18.1297 41.8869 17.9461 42.1427 17.8206 42.4324C17.6902 42.722 17.6274 43.0261 17.6226 43.3399C17.6177 43.6585 17.6757 43.9626 17.7916 44.2571C17.9123 44.5516 18.0814 44.8122 18.3083 45.0343C18.5353 45.2563 18.7913 45.4301 19.0859 45.546C19.3805 45.6667 19.6896 45.7246 20.0083 45.7198C20.3222 45.7149 20.6265 45.6522 20.9211 45.5267C21.2108 45.4012 21.4668 45.2226 21.6889 44.9957C22.4616 44.2957 23.2005 43.5571 23.8912 42.7799C24.2051 42.3551 24.461 41.8965 24.6639 41.409V41.4138ZM59.9041 7.62726C59.4357 6.94661 58.9141 6.3094 58.3394 5.71563C57.7744 5.10739 57.161 4.54259 56.5042 4.02607C55.6494 3.36472 54.7318 2.81441 53.7466 2.37029C51.0615 1.12001 48.2411 0.44901 45.2758 0.362119C42.2526 0.439356 39.4129 1.20207 36.7567 2.6551C34.6559 3.90056 32.7869 5.43082 31.1546 7.25556C28.6916 9.73198 26.19 12.1746 23.727 14.6559C23.5628 14.8103 23.413 14.9793 23.2875 15.1676C23.1571 15.351 23.0508 15.5489 22.9687 15.7613C22.8818 15.9689 22.8239 16.1861 22.79 16.413C22.7514 16.6351 22.7418 16.8571 22.7562 17.084C22.7707 17.3109 22.8142 17.533 22.877 17.7502C22.9398 17.9674 23.0267 18.175 23.1378 18.3681C23.2488 18.566 23.3792 18.7494 23.5338 18.9184C23.6835 19.0874 23.8525 19.237 24.036 19.3673C24.3258 19.5797 24.6397 19.7342 24.9826 19.8356C25.3207 19.9321 25.6732 19.9708 26.0258 19.9466C26.3831 19.9225 26.7212 19.8404 27.0496 19.6956C27.3732 19.5508 27.6678 19.3529 27.9237 19.1067C29.0731 18.0253 34.8781 12.387 36.5442 10.7119C45.3 19.3673 51.7086 25.7539 53.2492 27.3324C54.3213 28.4283 55.3065 29.4565 55.3065 29.4565C55.9971 30.1806 56.7022 30.9192 57.4363 31.6867C57.9337 31.0592 58.4843 30.4316 59.0252 29.7847C59.5661 29.1282 60.0732 28.4476 60.5416 27.7379C62.1498 25.1795 63.0915 22.3941 63.3717 19.3867C63.5745 16.0751 62.8935 12.9566 61.3191 10.0361C60.9038 9.20097 60.4305 8.39963 59.9041 7.62726ZM36.5394 14.4241C34.1199 16.7702 30.3722 20.439 29.4353 21.2597C28.8944 21.7086 28.2859 22.0465 27.6195 22.2734C26.9482 22.5003 26.2624 22.5968 25.5573 22.5679C24.8522 22.5437 24.1761 22.3893 23.5241 22.1093C22.877 21.8293 22.3023 21.4431 21.7952 20.9507C21.2929 20.4583 20.8921 19.8887 20.6023 19.2467C20.3077 18.6046 20.1435 17.9336 20.1049 17.2288C20.0663 16.524 20.158 15.8386 20.3753 15.1676C20.5975 14.4966 20.9307 13.8931 21.3799 13.3477C22.1188 12.4739 22.9591 11.6822 23.7704 10.8664C25.7939 8.84375 27.8271 6.82109 29.9086 4.75017C28.7689 3.72677 27.518 2.87233 26.1513 2.18202C24.7894 1.49171 23.3551 0.994501 21.858 0.680723C20.356 0.371773 18.8444 0.260745 17.3135 0.352464C15.7874 0.444184 14.2999 0.733823 12.8463 1.21656C5.56351 3.68815 1.33776 8.87754 0.482958 16.5289C0.333246 17.7598 0.323588 18.9908 0.449152 20.2218C0.574718 21.4528 0.830676 22.6596 1.22669 23.8326C1.61787 25.0105 2.12979 26.1256 2.7721 27.1876C3.40958 28.2496 4.15814 29.2296 5.01295 30.1275C6.19616 29.0462 7.28278 28.0324 8.39355 27.0476C8.67848 26.7725 8.99722 26.5359 9.34011 26.338C9.683 26.1401 10.0452 25.9856 10.4267 25.8746C10.8083 25.7636 11.1994 25.7008 11.5955 25.6863C11.9915 25.667 12.3875 25.696 12.7787 25.7732C13.165 25.8505 13.5417 25.9711 13.9039 26.1401C14.2613 26.3042 14.5994 26.5118 14.9084 26.7628C15.2175 27.009 15.4976 27.289 15.7391 27.6028C15.9806 27.9166 16.1834 28.2545 16.3428 28.6165C16.6229 29.3406 16.8354 30.084 16.9851 30.8467C20.1242 31.1219 21.8386 32.8791 22.1188 36.0361C25.34 36.3306 27.0786 38.0684 27.3394 41.2207C27.4311 41.2497 27.5229 41.2738 27.6195 41.2835C28.001 41.2979 28.3777 41.351 28.7495 41.4476C29.1214 41.5441 29.4788 41.6793 29.8169 41.8579C30.1597 42.0365 30.4737 42.2489 30.7634 42.4999C31.0532 42.751 31.314 43.0309 31.541 43.3399C31.7679 43.6488 31.9563 43.9771 32.1108 44.3295C32.2605 44.6819 32.3716 45.0488 32.4392 45.4253C32.5068 45.8018 32.531 46.1832 32.5117 46.5646C32.4923 46.9459 32.4296 47.3224 32.3233 47.6893C32.275 47.921 32.3185 48.1286 32.4634 48.3169C33.3906 49.2679 34.3179 50.2237 35.3176 51.1023C35.7329 51.4305 36.2062 51.5946 36.7374 51.5898C37.2638 51.585 37.7371 51.4112 38.1428 51.0781C38.4277 50.8561 38.6547 50.5857 38.8141 50.2671C38.9783 49.9485 39.0604 49.6058 39.0652 49.2486C39.0748 48.8913 39.0024 48.5486 38.8527 48.2203C38.6982 47.8969 38.4857 47.6169 38.2104 47.39C35.8633 45.0488 33.5114 42.7172 31.1643 40.3759C31.0628 40.2697 30.9663 40.1587 30.8842 40.0332L26.8081 35.9686C26.5667 35.7175 26.4459 35.4182 26.4507 35.0658C26.4507 34.7183 26.5763 34.419 26.8226 34.1728C27.0737 33.9266 27.3683 33.8059 27.7209 33.8011C28.0686 33.7962 28.368 33.9169 28.6192 34.1583L32.7193 38.2471C32.8304 38.3291 32.9318 38.4112 33.0332 38.5029C33.7673 39.2029 34.511 39.9028 35.2355 40.6124C36.9258 42.2827 38.5919 43.9771 40.3015 45.6232C40.5285 45.8598 40.7989 46.0432 41.108 46.1639C41.4171 46.2894 41.7359 46.3425 42.0691 46.3328C42.3975 46.3184 42.7114 46.2411 43.0108 46.0963C43.3102 45.9515 43.5662 45.7536 43.7787 45.4977C43.9767 45.2563 44.1168 44.9908 44.2133 44.6915C44.3051 44.3971 44.3389 44.093 44.3148 43.784C44.2858 43.4751 44.2085 43.1854 44.0685 42.9054C43.9284 42.6303 43.7449 42.3889 43.5131 42.1813C41.1225 39.7773 38.7078 37.3926 36.3028 34.9983C35.1582 33.8542 33.9991 32.7294 32.8835 31.5564C32.758 31.4405 32.6565 31.3005 32.5889 31.146C32.5165 30.9867 32.4827 30.8226 32.4779 30.6488C32.4779 30.475 32.5117 30.3109 32.5793 30.1516C32.6469 29.9923 32.7435 29.8523 32.869 29.7365C33.125 29.4806 33.4293 29.3503 33.7866 29.3454C34.144 29.3406 34.4531 29.4613 34.7139 29.7075C34.8733 29.8378 35.0278 29.9778 35.1678 30.1323C38.5774 33.5163 41.9725 36.9051 45.3966 40.2697C45.7684 40.6414 46.2079 40.8973 46.715 41.0373C47.2172 41.1676 47.705 41.129 48.1783 40.9214C48.6516 40.7138 49.0138 40.3856 49.2601 39.9366C49.5209 39.478 49.6175 38.9856 49.545 38.4643C49.4726 37.9429 49.2504 37.494 48.8737 37.1223C46.2659 34.4962 43.6338 31.8846 41.0114 29.273C40.0697 28.3317 39.1087 27.4097 38.1862 26.4539C38.051 26.338 37.9399 26.198 37.8627 26.0387C37.7806 25.8746 37.7323 25.7056 37.7226 25.527C37.713 25.3484 37.7371 25.1746 37.7951 25.0057C37.8578 24.8367 37.9448 24.6871 38.0655 24.5519C38.2007 24.4216 38.3504 24.3202 38.5243 24.2526C38.6933 24.1802 38.872 24.1464 39.0604 24.1464C39.2439 24.1512 39.4226 24.1899 39.5916 24.2623C39.7655 24.3347 39.9103 24.436 40.0407 24.5712C40.1615 24.6726 40.2629 24.7933 40.374 24.9043C43.7546 28.2689 47.14 31.6384 50.5302 35.0031C50.8635 35.3844 51.274 35.6499 51.7617 35.7899C52.2495 35.9348 52.7373 35.9299 53.225 35.7851L53.2927 35.7658C53.4858 35.6886 53.6645 35.5872 53.8287 35.4617C53.9929 35.341 54.1426 35.1962 54.2682 35.0369C54.3986 34.8727 54.5048 34.699 54.5869 34.5107C54.669 34.3224 54.7222 34.1245 54.756 33.9218C54.7849 33.7142 54.7898 33.5114 54.7705 33.3087C54.7463 33.1011 54.7028 32.9032 54.6256 32.7101C54.5531 32.517 54.4565 32.3384 54.3358 32.1694C54.2151 32.0053 54.075 31.8557 53.9156 31.7253C50.0859 27.8972 41.4364 19.2756 36.5394 14.4241Z" fill="#70D6FF"/>
</g>
</svg>
