<svg width="52" height="51" viewBox="0 0 52 51" fill="none" xmlns="http://www.w3.org/2000/svg">
<mask id="mask0_142_3154" style="mask-type:luminance" maskUnits="userSpaceOnUse" x="0" y="0" width="52" height="51">
<path d="M0 0H51.0108V51H0V0Z" fill="white"/>
</mask>
<g mask="url(#mask0_142_3154)">
<path fill-rule="evenodd" clip-rule="evenodd" d="M25.5054 0C39.5922 0 51.0108 11.4162 51.0108 25.5C51.0108 39.5838 39.5922 51 25.5054 51C11.4187 51 0 39.5838 0 25.5C0 11.4162 11.4187 0 25.5054 0Z" fill="#EAECF0"/>
</g>
<path fill-rule="evenodd" clip-rule="evenodd" d="M19.6495 20.1385C20.673 19.3684 20.1693 19.7441 21.1928 18.9766C22.091 18.3051 21.8485 17.6362 21.0808 16.5703C19.5082 14.3877 18.9778 13.5936 17.4132 11.4058C16.4856 10.1053 15.2702 11.1206 14.9504 11.4484C6.71955 19.8534 12.0157 26.337 18.626 32.9431C24.9164 39.2349 31.4333 44.0343 39.5735 36.0663C39.9014 35.7466 40.9169 34.5314 39.6162 33.604C37.4279 32.0397 36.6336 31.5094 34.4506 29.9372C33.3844 29.1697 32.7181 28.9272 32.0437 29.8226C31.2734 30.8486 31.6519 30.3449 30.8816 31.3682C29.8287 32.7832 27.9096 34.4834 22.5735 29.0285C16.4004 22.7181 18.1755 21.2338 19.6495 20.1385Z" fill="#457AA5"/>
</svg>
