<svg width="72" height="78" viewBox="0 0 72 78" fill="none" xmlns="http://www.w3.org/2000/svg">
<mask id="mask0_132_1795" style="mask-type:luminance" maskUnits="userSpaceOnUse" x="0" y="0" width="56" height="71">
<path d="M0 0.422363H55.9084V70.6495H0V0.422363Z" fill="white"/>
</mask>
<g mask="url(#mask0_132_1795)">
<path d="M33.0079 67.1846H4.66492C3.81676 67.1846 3.13351 66.5089 3.13351 65.676V5.08178C3.13351 4.24892 3.81676 3.57321 4.66492 3.57321H51.0393C51.8875 3.57321 52.5707 4.24892 52.5707 5.08178V29.6746C52.5707 30.531 53.2697 31.2225 54.1335 31.2225C55.0053 31.2225 55.7042 30.531 55.7042 29.6746V5.08178C55.7042 2.54392 53.6152 0.485352 51.0393 0.485352H4.66492C2.08901 0.485352 0 2.54392 0 5.08178V65.676C0 68.2139 2.08901 70.2724 4.66492 70.2724H33.0079C33.8717 70.2724 34.5707 69.581 34.5707 68.7324C34.5707 67.876 33.8717 67.1846 33.0079 67.1846Z" fill="#FFAB0F"/>
</g>
<path d="M26.1676 17.1894H37.2409C38.1048 17.1894 38.8037 16.498 38.8037 15.6416C38.8037 14.793 38.1048 14.1016 37.2409 14.1016H26.1676C25.2959 14.1016 24.5969 14.793 24.5969 15.6416C24.5969 16.498 25.2959 17.1894 26.1676 17.1894Z" fill="#FFAB0F"/>
<path d="M46.61 22.5244C46.61 21.668 45.9032 20.9766 45.0393 20.9766H25.7278C24.8561 20.9766 24.1571 21.668 24.1571 22.5244C24.1571 23.373 24.8561 24.0644 25.7278 24.0644H45.0393C45.9032 24.0644 46.61 23.373 46.61 22.5244Z" fill="#FFAB0F"/>
<path d="M25.7278 31.4502C24.8561 31.4502 24.1571 32.1416 24.1571 32.9981C24.1571 33.8466 24.8561 34.538 25.7278 34.538H36.8011C37.665 34.538 38.3639 33.8466 38.3639 32.9981C38.3639 32.1416 37.665 31.4502 36.8011 31.4502H25.7278Z" fill="#FFAB0F"/>
<path d="M34.8456 38.5764H25.7199C24.8561 38.5764 24.1571 39.2678 24.1571 40.1164C24.1571 40.9728 24.8561 41.6643 25.7199 41.6643H34.8456C35.7095 41.6643 36.4084 40.9728 36.4084 40.1164C36.4084 39.2678 35.7095 38.5764 34.8456 38.5764Z" fill="#FFAB0F"/>
<path d="M32.8116 49.05H25.7199C24.8561 49.05 24.1571 49.7415 24.1571 50.5979C24.1571 51.4465 24.8561 52.1379 25.7199 52.1379H32.8116C33.6833 52.1379 34.3822 51.4465 34.3822 50.5979C34.3822 49.7415 33.6833 49.05 32.8116 49.05Z" fill="#FFAB0F"/>
<path d="M25.7199 56.1687C24.8561 56.1687 24.1571 56.8601 24.1571 57.7087C24.1571 58.5651 24.8561 59.2566 25.7199 59.2566H32.8194C33.6833 59.2566 34.3901 58.5651 34.3901 57.7087C34.3901 56.8601 33.6833 56.1687 32.8194 56.1687H25.7199Z" fill="#FFAB0F"/>
<path d="M17.1832 50.4801L12.322 55.163L10.1309 53.0022C9.52616 52.3972 8.52878 52.3972 7.91621 53.0022C7.30365 53.5994 7.30365 54.5815 7.91621 55.1787L10.1073 57.3472C10.712 57.9444 11.5209 58.2744 12.3769 58.2744C13.2408 58.2744 14.0497 57.9444 14.6544 57.3472L19.3979 52.6644C20.0105 52.0672 20.0105 51.0851 19.3979 50.4801C18.7853 49.883 17.7879 49.8751 17.1832 50.4801Z" fill="#FFAB0F"/>
<path d="M19.3979 32.8881C18.7853 32.2831 17.7879 32.2831 17.1832 32.8881L12.322 37.5709L10.1387 35.4024C9.52616 34.7974 8.53663 34.7974 7.91621 35.3945C7.30365 35.9995 7.30365 36.9816 7.91621 37.5866L10.1073 39.7552C10.712 40.3524 11.5209 40.6824 12.3769 40.6824C13.2408 40.6824 14.0497 40.3524 14.6544 39.7474L19.3979 35.0724C20.0105 34.4674 20.0105 33.4931 19.3979 32.8881Z" fill="#FFAB0F"/>
<path d="M19.7436 15.4137C19.1388 14.8087 18.1415 14.8087 17.5289 15.4137L12.6755 20.0966L10.4844 17.928C9.87968 17.323 8.88229 17.323 8.26973 17.9201C7.65716 18.5251 7.65716 19.5073 8.26973 20.1044L10.4608 22.2808C11.0655 22.878 11.8744 23.208 12.7305 23.208C13.5943 23.208 14.3954 22.878 15.008 22.273L19.7436 17.598C20.3561 16.993 20.3561 16.0187 19.7436 15.4137Z" fill="#FFAB0F"/>
<mask id="mask1_132_1795" style="mask-type:luminance" maskUnits="userSpaceOnUse" x="35" y="34" width="37" height="44">
<path d="M35.8036 34.4438H71.9999V77.0217H35.8036V34.4438Z" fill="white"/>
</mask>
<g mask="url(#mask1_132_1795)">
<path d="M68.9373 58.4552C68.9373 60.9224 68.2698 63.3816 67.0054 65.5659C65.7331 67.7423 63.9268 69.5495 61.775 70.7988C60.8326 71.3409 58.6493 72.3466 55.6258 73.6273C54.8483 73.9573 53.953 73.9495 53.1834 73.6038C49.9635 72.1738 47.5053 71.0502 47.0656 70.7988C44.898 69.5338 43.0839 67.7266 41.8273 65.5659C40.5708 63.3974 39.9111 60.9459 39.9111 58.4552V47.7224C39.9111 46.3081 40.3587 44.9566 41.2069 43.8095C42.0551 42.6624 43.2331 41.8374 44.5996 41.4052L50.042 39.7159C51.4635 39.2681 52.932 39.0481 54.4242 39.0481C55.9085 39.0481 57.3849 39.2681 58.8064 39.7159L64.2488 41.4052C65.6153 41.8374 66.7855 42.6624 67.6415 43.8095C68.4896 44.9566 68.9373 46.3081 68.9373 47.7224V58.4552ZM70.1703 41.9867C70.1703 41.9867 70.1703 41.9867 70.1624 41.9867C68.9216 40.3052 67.2017 39.0874 65.1912 38.4667L59.7488 36.7695C56.3012 35.6852 52.5472 35.6852 49.0996 36.7695L43.6493 38.4667C41.6467 39.0874 39.9268 40.3052 38.6781 41.9867C37.4294 43.6681 36.7776 45.6481 36.7776 47.7224V58.4552C36.7776 61.4802 37.5786 64.4659 39.1022 67.0981C40.6336 69.7302 42.8404 71.9302 45.4792 73.4623C46.2488 73.9023 49.83 75.5052 51.8954 76.4245C52.6964 76.7781 53.5603 76.9588 54.4242 76.9588C55.2567 76.9588 56.0891 76.7938 56.8666 76.4638C59.0891 75.5209 62.0184 74.2402 63.3614 73.4623C65.9844 71.9381 68.1834 69.7459 69.7226 67.1059C71.2619 64.4502 72.0708 61.4645 72.0708 58.4552V47.7224C72.0708 45.6481 71.4111 43.6681 70.1703 41.9867Z" fill="#FFAB0F"/>
</g>
<path d="M61.3666 50.4252L52.0053 59.6652C51.9111 59.7595 51.8247 59.8066 51.7618 59.8224C51.5184 59.8931 51.2906 59.8459 51.1257 59.6731L47.4739 56.0824C46.8613 55.4774 45.8718 55.4774 45.2592 56.0824C44.6467 56.6874 44.6467 57.6617 45.2592 58.2667L48.9032 61.8574C49.6179 62.5724 50.5681 62.9495 51.5498 62.9495C51.8954 62.9495 52.2566 62.9024 52.61 62.8002C53.1833 62.6431 53.7409 62.3209 54.2121 61.8574L63.5891 52.6017C64.2016 51.9967 64.1938 51.0224 63.5891 50.4174C62.9687 49.8124 61.9791 49.8202 61.3666 50.4252Z" fill="#FFAB0F"/>
</svg>
