<svg width="88" height="84" viewBox="0 0 88 84" fill="none" xmlns="http://www.w3.org/2000/svg">
<mask id="mask0_132_1793" style="mask-type:luminance" maskUnits="userSpaceOnUse" x="0" y="29" width="88" height="55">
<path d="M0 29.9204H88V83.046H0V29.9204Z" fill="white"/>
</mask>
<g mask="url(#mask0_132_1793)">
<path d="M84.9786 34.0563C83.5222 32.5901 81.5773 31.7847 79.5057 31.7847C77.4342 31.7847 75.4893 32.5992 74.0329 34.0654L63.2138 44.9167C62.6439 44.5728 62.0287 44.3103 61.3865 44.1293C61.3412 44.1112 61.287 44.0931 61.2327 44.0841C60.9704 44.0117 60.708 43.9574 60.4457 43.9121C60.3733 43.9031 60.3009 43.885 60.2286 43.8759C59.9029 43.8397 59.5773 43.8126 59.2426 43.8126C59.2426 43.8126 59.2426 43.8126 59.2335 43.8126H25.8174C22.6965 43.8126 19.7384 45.0163 17.4498 47.2246L0.913612 63.8048C0.452263 64.2573 0.198975 64.8727 0.198975 65.5244C0.198975 66.1669 0.452263 66.7824 0.913612 67.2439L15.9662 82.349C16.4185 82.8015 17.0337 83.0549 17.6759 83.0549C18.3182 83.0549 18.9333 82.8015 19.3947 82.349L26.3511 75.3711H51.5625C53.625 75.3711 55.5699 74.5566 57.0353 73.0905L84.9876 45.0525C88 42.0206 88 37.0882 84.9786 34.0563ZM81.5592 41.6133L53.6069 69.6513C53.0551 70.2034 52.3314 70.5021 51.5534 70.5021H25.338C24.6957 70.5021 24.0806 70.7645 23.6283 71.217L17.6759 77.1903L6.05177 65.5244L20.8421 50.6999C22.1899 49.3966 23.9539 48.6726 25.8174 48.6726H59.2335C60.0929 48.6726 60.907 49.0708 61.4679 49.7587C61.495 49.7949 61.5312 49.822 61.5674 49.8492C61.9383 50.356 62.1373 50.9443 62.1373 51.5778C62.1373 52.3561 61.8388 53.0892 61.287 53.6413C60.7442 54.1843 60.0115 54.492 59.2426 54.492H40.8067C39.4679 54.492 38.3824 55.578 38.3824 56.9175C38.3824 58.2569 39.4679 59.352 40.8067 59.352H59.2335C59.2426 59.352 59.2426 59.352 59.2426 59.352C61.3141 59.352 63.25 58.5375 64.7154 57.0713C66.1809 55.6052 66.986 53.6503 66.986 51.5778C66.986 50.5551 66.7779 49.5414 66.3889 48.6093L77.4523 37.4954C78.5468 36.4003 80.4646 36.4003 81.5592 37.4954C82.6899 38.6358 82.6899 40.4821 81.5592 41.6133Z" fill="#82FF8D"/>
</g>
<mask id="mask1_132_1793" style="mask-type:luminance" maskUnits="userSpaceOnUse" x="30" y="0" width="40" height="40">
<path d="M30.1053 0H69.4737V39.188H30.1053V0Z" fill="white"/>
</mask>
<g mask="url(#mask1_132_1793)">
<path d="M41.7295 38.3283C41.8109 38.3283 41.8832 38.3102 41.9647 38.3102C42.0099 38.3102 42.0642 38.3193 42.1184 38.3283C42.2722 38.3283 42.426 38.3283 42.5798 38.3283C49.3824 38.3283 55.7599 35.6856 60.5814 30.8527C65.5025 25.9113 68.153 19.3317 68.0263 12.3267C68.0082 11.0234 66.9499 9.96454 65.6472 9.93739C60.2377 9.84689 55.0905 11.4216 50.7393 14.4445C49.7714 9.30387 47.2566 4.60674 43.412 0.877995C42.4712 -0.0270401 40.9877 -0.0270401 40.0469 0.877995C35.0263 5.74708 32.2582 12.2724 32.2582 19.2593C32.2582 26.2552 35.0263 32.7805 40.0469 37.6496C40.5173 38.1021 41.1234 38.3283 41.7295 38.3283ZM57.153 27.4136C54.3849 30.183 50.9745 32.0564 47.2566 32.9162C49.6357 29.1694 50.9836 24.8614 51.1735 20.3362C54.4844 17.241 58.6184 15.3495 63.0781 14.897C62.6077 19.6303 60.5543 24.0016 57.153 27.4136ZM41.7295 6.20865C44.7237 9.89214 46.352 14.4445 46.352 19.2683C46.352 24.0831 44.7237 28.6354 41.7295 32.3189C38.7262 28.6354 37.1069 24.0831 37.1069 19.2593C37.1069 14.4354 38.7262 9.88309 41.7295 6.20865Z" fill="#82FF8D"/>
</g>
</svg>
