<svg width="77" height="53" viewBox="0 0 77 53" fill="none" xmlns="http://www.w3.org/2000/svg">
<mask id="mask0_130_1602" style="mask-type:luminance" maskUnits="userSpaceOnUse" x="10" y="26" width="68" height="27">
<path d="M10.6309 26.8472H77.0001V52.0739H10.6309V26.8472Z" fill="white"/>
</mask>
<g mask="url(#mask0_130_1602)">
<path fill-rule="evenodd" clip-rule="evenodd" d="M11.7372 43.364L14.5907 42.7234C17.3565 42.0993 20.21 42.3293 22.8389 43.3913L41.9479 51.0995C44.9656 52.3203 48.3778 52.2109 51.3134 50.7984L75.7843 39.05C76.4689 38.7215 76.9728 38.1522 77.2192 37.4405C77.4657 36.7288 77.4109 35.9678 77.0713 35.2945C76.5948 34.3474 75.6309 33.7561 74.5629 33.7561C74.311 33.7561 74.059 33.789 73.8071 33.8601L53.9533 39.3511C53.9259 39.7234 53.8492 40.0847 53.7232 40.4296C53.1098 42.1541 51.4941 43.2326 49.747 43.2326C49.3253 43.2326 48.9035 43.1724 48.4873 43.041L33.2834 38.4095C32.7905 38.2562 32.5166 37.7416 32.6645 37.2544C32.8178 36.7671 33.3381 36.4934 33.8256 36.6412L49.035 41.2782C50.2563 41.6559 51.5489 41.0044 51.9761 39.811C52.0637 39.5537 52.113 39.2909 52.113 39.0172C52.113 38.9351 52.1075 38.8529 52.0966 38.7763V38.7708C52.0966 38.7599 52.0966 38.7489 52.0911 38.7434C52.0035 38.0099 51.5872 37.3639 50.9574 36.9916L32.2921 29.4476C28.1515 27.7779 23.6166 27.121 19.1694 27.548L11.7372 28.2651V43.364Z" fill="#70D6FF"/>
</g>
<path fill-rule="evenodd" clip-rule="evenodd" d="M6.79156 46.5173H9.28904C9.61765 46.5173 9.88055 46.2545 9.88055 45.9315V27.5918C9.87507 27.5699 9.87507 27.548 9.86959 27.5206C9.86412 27.433 9.86959 27.3509 9.88055 27.2688V26.5516C9.88055 26.2286 9.61765 25.9658 9.28904 25.9658H6.79156V46.5173Z" fill="#70D6FF"/>
<mask id="mask1_130_1602" style="mask-type:luminance" maskUnits="userSpaceOnUse" x="0" y="24" width="6" height="26">
<path d="M0.00012207 24.0442H5.02246V49.2709H0.00012207V24.0442Z" fill="white"/>
</mask>
<g mask="url(#mask1_130_1602)">
<path fill-rule="evenodd" clip-rule="evenodd" d="M4.93478 47.4426V24.6411C4.93478 24.3455 4.69379 24.1046 4.39804 24.1046H0.0055542V48.3733H4.39804C4.69379 48.3733 4.94026 48.1324 4.94026 47.8368V47.4426H4.93478Z" fill="#70D6FF"/>
</g>
<path fill-rule="evenodd" clip-rule="evenodd" d="M46.7018 2.68811C44.3467 2.68811 42.4298 4.59326 42.4298 6.92542C42.4298 9.26305 44.3467 11.1682 46.7018 11.1682C49.0514 11.1682 50.9683 9.26305 50.9683 6.92542C50.9683 4.58778 49.0514 2.68811 46.7018 2.68811Z" fill="#70D6FF"/>
<path fill-rule="evenodd" clip-rule="evenodd" d="M37.8129 20.8853H55.5909C55.1254 16.4674 51.3463 13.0074 46.7786 13.0074H46.6307C42.052 13.0074 38.2784 16.4619 37.8129 20.8853Z" fill="#70D6FF"/>
<path fill-rule="evenodd" clip-rule="evenodd" d="M38.6398 14.7156C37.391 12.5806 35.2605 11.0313 32.8288 10.5112C32.2373 10.3853 31.6293 10.3196 31.0159 10.3141C30.9721 10.3141 30.9338 10.3196 30.8845 10.3196C30.8406 10.3196 30.7914 10.3196 30.7421 10.3141C30.1341 10.3196 29.5317 10.3853 28.9456 10.5112C27.2806 10.867 25.7581 11.6882 24.5422 12.8926C23.0908 14.3379 22.2035 16.1883 21.9954 18.192H36.5421C37.0131 16.9 37.7306 15.7229 38.6398 14.7156Z" fill="#70D6FF"/>
<mask id="mask2_130_1602" style="mask-type:luminance" maskUnits="userSpaceOnUse" x="26" y="0" width="10" height="9">
<path d="M26.0538 0H35.8685V8.6279H26.0538V0Z" fill="white"/>
</mask>
<g mask="url(#mask2_130_1602)">
<path fill-rule="evenodd" clip-rule="evenodd" d="M30.7639 8.46914H31.0104C33.3052 8.40892 35.151 6.53114 35.151 4.23731C35.151 1.89967 33.2395 0 30.8844 0C28.5348 0 26.6179 1.89967 26.6179 4.23731C26.6179 6.53114 28.4691 8.40892 30.7639 8.46914Z" fill="#70D6FF"/>
</g>
<mask id="mask3_130_1602" style="mask-type:luminance" maskUnits="userSpaceOnUse" x="56" y="0" width="13" height="9">
<path d="M56.8998 0H68.1165V8.6279H56.8998V0Z" fill="white"/>
</mask>
<g mask="url(#mask3_130_1602)">
<path fill-rule="evenodd" clip-rule="evenodd" d="M62.3986 8.46914H62.6396C64.9399 8.40892 66.7856 6.53114 66.7856 4.23731C66.7856 1.89967 64.8742 0 62.5191 0C60.164 0 58.2526 1.89967 58.2526 4.23731C58.2471 6.53114 60.0983 8.40892 62.3986 8.46914Z" fill="#70D6FF"/>
</g>
<path fill-rule="evenodd" clip-rule="evenodd" d="M56.8614 18.192H71.4027C71.0028 14.4638 68.2041 11.305 64.4579 10.5112C63.8664 10.3853 63.2585 10.3196 62.6451 10.3141C62.6012 10.3141 62.5629 10.3196 62.5136 10.3196C62.4698 10.3196 62.4205 10.3196 62.3712 10.3141C61.7633 10.3196 61.1608 10.3853 60.5748 10.5112C58.9098 10.867 57.3872 11.6882 56.1713 12.8926C55.6237 13.4401 55.1472 14.0532 54.7583 14.7156C55.6729 15.7229 56.3849 16.9 56.8614 18.192Z" fill="#70D6FF"/>
</svg>
