<?xml version="1.0" encoding="utf-8"?>
<!-- Generator: Adobe Illustrator 25.0.1, SVG Export Plug-In . SVG Version: 6.00 Build 0)  -->
<svg version="1.0" id="katman_1" xmlns="http://www.w3.org/2000/svg" xmlns:xlink="http://www.w3.org/1999/xlink" x="0px" y="0px"
	 viewBox="0 0 560 400" style="enable-background:new 0 0 560 400;" xml:space="preserve">
<style type="text/css">
	.st0{fill:#AC162C;}
</style>
<g transform="matrix(.323554 0 0 .323554 66.8885 122.222)">
	<g>
		<path class="st0" d="M739.4,418.8h-50V258.9c16,8.9,37.1,25.3,50,41.1V418.8z"/>
		<path class="st0" d="M317.1,418.8h-62.4l-81.4-251.6h56.7l56,176.9h0.7l56.7-176.9h57.1L317.1,418.8z"/>
		<path class="st0" d="M568.5,418.8h-47.6v-25.4h-1c-6.4,10.6-14.6,18.2-24.7,22.9c-10.1,4.7-20.4,7-31,7c-13.4,0-24.4-1.8-33-5.3
			c-8.6-3.5-15.3-8.5-20.3-15c-4.9-6.5-8.4-14.3-10.4-23.6c-2-9.3-3-19.6-3-30.8V236.6h50v102.9c0,15,2.4,26.3,7.1,33.7
			c4.7,7.4,13,11.1,25,11.1c13.6,0,23.5-4,29.6-12.2c6.1-8.1,9.2-21.4,9.2-40v-95.5h50.1V418.8z"/>
		<path class="st0" d="M747.7,309.2l-0.1-7.1l63.1-65.5h59.2l-68.7,67l76.5,115.2H817L747.7,309.2z"/>
		<path class="st0" d="M886.8,292.6c0.7-11.7,3.7-21.5,8.8-29.3c5.2-7.8,11.7-14,19.7-18.7c8-4.7,17-8.1,27-10c10-2,20-3,30.1-3
			c9.2,0,18.4,0.6,27.8,1.9c9.4,1.3,18,3.8,25.7,7.6c7.7,3.8,14.1,9,19,15.7c4.9,6.7,7.4,15.6,7.4,26.6v94.8
			c0,8.2,0.5,16.1,1.4,23.6c0.9,7.5,2.6,13.2,4.9,16.9H1008c-0.9-2.8-1.7-5.7-2.3-8.6c-0.6-2.9-1-5.9-1.2-9
			c-8,8.2-17.4,14-28.2,17.3c-10.8,3.3-21.9,4.9-33.1,4.9c-8.7,0-16.8-1.1-24.3-3.2c-7.5-2.1-14.1-5.4-19.7-9.9
			c-5.6-4.5-10.1-10.1-13.2-16.9c-3.2-6.8-4.8-14.9-4.8-24.3c0-10.3,1.8-18.9,5.5-25.6c3.7-6.7,8.3-12,14.1-16c5.8-4,12.3-7,19.7-9
			c7.4-2,14.9-3.6,22.4-4.8c7.5-1.2,14.9-2.1,22.2-2.8c7.3-0.7,13.7-1.8,19.4-3.2c5.6-1.4,10.1-3.5,13.4-6.2
			c3.3-2.7,4.8-6.6,4.6-11.8c0-5.4-0.9-9.7-2.7-12.9c-1.8-3.2-4.1-5.6-7-7.4c-2.9-1.8-6.3-2.9-10.2-3.5c-3.9-0.6-8-0.9-12.5-0.9
			c-9.9,0-17.6,2.1-23.3,6.4c-5.6,4.2-8.9,11.3-9.9,21.2L886.8,292.6L886.8,292.6z M1002.4,329.7c-2.1,1.9-4.8,3.3-7.9,4.4
			c-3.2,1.1-6.6,1.9-10.2,2.7c-3.6,0.7-7.5,1.3-11.4,1.8c-4,0.5-8,1-12,1.8c-3.8,0.7-7.5,1.7-11.1,2.8c-3.6,1.2-6.8,2.8-9.5,4.8
			c-2.7,2-4.9,4.5-6.5,7.6c-1.6,3.1-2.5,6.9-2.5,11.6c0,4.5,0.8,8.2,2.5,11.3c1.7,3.1,3.9,5.5,6.7,7.2c2.8,1.8,6.1,3,9.9,3.7
			c3.8,0.7,7.6,1,11.6,1c9.9,0,17.5-1.6,22.9-4.9c5.4-3.3,9.4-7.2,12-11.8c2.6-4.6,4.2-9.2,4.7-13.9c0.6-4.7,0.9-8.5,0.9-11.3
			L1002.4,329.7L1002.4,329.7z"/>
		<path class="st0" d="M1084.8,236.6h47.6V262h1c6.3-10.6,14.6-18.3,24.7-23.1c10.1-4.8,20.4-7.2,31-7.2c13.4,0,24.4,1.8,33,5.5
			c8.6,3.7,15.3,8.7,20.3,15.2c4.9,6.5,8.4,14.3,10.4,23.6c2,9.3,3,19.6,3,30.8v112.1h-50V315.9c0-15-2.4-26.3-7-33.7
			c-4.7-7.4-13-11.1-25-11.1c-13.6,0-23.5,4.1-29.6,12.2c-6.1,8.1-9.2,21.4-9.2,40v95.5h-50L1084.8,236.6L1084.8,236.6z"/>
		<path class="st0" d="M601.6,205.2v213.7h50V232.8C635.6,222.9,618.8,213.7,601.6,205.2z"/>
		<path class="st0" d="M91,214.3c29-85,202.5-116.1,387.5-69.6c111,27.9,201.6,82,260.9,135.5c-26.9-71-157.2-172.2-336.6-206.8
			C199.9,34.1-0.2,68.6-24.9,158.6c-17.9,65,60.7,141.2,182.1,193.3C102.6,307.8,76.1,258.1,91,214.3L91,214.3z"/>
		<path class="st0" d="M739.4,249.3v-82.1h-50.1v24.9C710.7,211.2,727.7,230.6,739.4,249.3z"/>
	</g>
	<path class="st0" d="M1344.8,392.1c0,15.1-11.9,27-27.3,27c-15.3,0-27.5-11.9-27.5-27c0-14.8,12.2-26.7,27.5-26.7
		C1332.9,365.5,1344.8,377.3,1344.8,392.1z M1296.8,392.1c0,11.9,8.8,21.3,20.8,21.3c11.7,0,20.3-9.4,20.3-21.1
		c0-11.9-8.6-21.5-20.5-21.5C1305.6,370.8,1296.8,380.4,1296.8,392.1z M1313.3,406.1h-6.2v-26.7c2.4-0.5,5.9-0.8,10.2-0.8
		c5,0,7.3,0.8,9.3,1.9c1.5,1.1,2.6,3.3,2.6,5.9c0,2.9-2.3,5.2-5.5,6.2v0.3c2.6,1,4.1,2.9,4.9,6.5c0.8,4.1,1.3,5.7,1.9,6.7h-6.7
		c-0.8-1-1.3-3.4-2.1-6.5c-0.5-2.9-2.1-4.2-5.5-4.2h-2.9V406.1z M1313.4,391h2.9c3.4,0,6.2-1.1,6.2-3.9c0-2.4-1.8-4.1-5.7-4.1
		c-1.6,0-2.8,0.2-3.4,0.3V391z"/>
</g>
</svg>
